<svg width="1151" height="188" viewBox="0 0 1151 188" fill="none" xmlns="http://www.w3.org/2000/svg">
<path d="M13.0927 186.559L8.19441 145.188L2.11383 145.908L0.949553 136.074L23.3517 133.422L24.516 143.255L18.4354 143.975L23.3336 185.347L13.0927 186.559ZM42.1565 183.59C38.064 184.075 34.7857 183.214 32.3218 181.008C29.8749 178.78 28.3747 175.329 27.8213 170.655L24.9416 146.332C24.4226 141.949 25.0955 138.496 26.9604 135.974C28.8447 133.45 31.8524 131.943 35.9837 131.454C40.115 130.965 43.3818 131.729 45.784 133.746C48.2056 135.76 49.6759 138.959 50.1949 143.342L53.0746 167.665C53.628 172.339 52.9656 176.046 51.0872 178.786C49.2259 181.504 46.249 183.105 42.1565 183.59ZM41.1277 174.153C42.6794 173.97 43.2772 172.375 42.9213 169.368L39.9624 144.377C39.6638 141.855 38.7581 140.684 37.2453 140.863C35.5384 141.065 34.8377 142.456 35.1431 145.036L38.0986 169.998C38.2869 171.589 38.6164 172.71 39.087 173.362C39.5553 173.995 40.2355 174.259 41.1277 174.153ZM56.476 181.423L50.4134 130.218L63.942 128.616C66.7738 128.281 69.0886 128.646 70.8865 129.711C72.7038 130.775 74.1091 132.427 75.1023 134.67C76.0955 136.913 76.7827 139.644 77.1639 142.863C77.5314 145.967 77.5511 148.708 77.2231 151.087C76.8928 153.447 76.0264 155.349 74.624 156.794C73.241 158.236 71.1337 159.125 68.3019 159.46L64.1415 159.952L66.5424 180.231L56.476 181.423ZM63.053 150.759L63.6348 150.69C65.5356 150.465 66.6362 149.794 66.9366 148.676C67.237 147.559 67.2644 145.963 67.0187 143.888C66.789 141.948 66.3988 140.48 65.8481 139.483C65.3145 138.464 64.2719 138.047 62.7202 138.231L61.5856 138.365L63.053 150.759ZM106.053 176.025C101.379 176.578 97.8661 175.814 95.5152 173.732C93.1837 171.648 91.7171 168.065 91.1154 162.984L90.523 157.98L100.648 156.781L101.405 163.181C101.545 164.365 101.83 165.275 102.26 165.912C102.706 166.528 103.376 166.783 104.268 166.678C105.199 166.567 105.807 166.22 106.092 165.636C106.396 165.049 106.475 164.135 106.328 162.894C106.142 161.323 105.831 160.032 105.397 159.021C104.96 157.991 104.298 157.047 103.41 156.188C102.538 155.308 101.348 154.308 99.8388 153.189L94.7253 149.369C90.9087 146.536 88.7536 143.035 88.2598 138.865C87.7431 134.501 88.3579 131.055 90.1041 128.528C91.8697 125.998 94.6726 124.506 98.513 124.051C103.207 123.495 106.681 124.352 108.936 126.622C111.211 128.89 112.65 132.575 113.254 137.676L102.839 138.909L102.422 135.389C102.339 134.69 102.071 134.171 101.618 133.832C101.184 133.49 100.628 133.359 99.9491 133.439C99.1345 133.536 98.5607 133.84 98.2279 134.351C97.9122 134.841 97.7969 135.445 97.8818 136.162C97.9668 136.88 98.2526 137.633 98.7393 138.421C99.2259 139.209 100.106 140.078 101.379 141.029L107.956 146.003C109.273 146.988 110.5 148.052 111.639 149.196C112.775 150.32 113.742 151.68 114.541 153.277C115.337 154.855 115.877 156.836 116.159 159.222C116.729 164.032 116.283 167.91 114.823 170.856C113.379 173.781 110.456 175.504 106.053 176.025ZM118.976 174.023L112.914 122.818L133.396 120.393L134.567 130.285L124.5 131.477L125.682 141.456L135.341 140.312L136.481 149.942L126.822 151.086L128.21 162.81L138.946 161.539L140.127 171.518L118.976 174.023ZM153.131 170.451C149.427 170.889 146.303 170.089 143.761 168.05C141.237 166.008 139.73 162.912 139.239 158.761L136.442 135.137C135.854 130.172 136.383 126.254 138.03 123.384C139.696 120.512 142.75 118.813 147.191 118.287C149.616 118 151.822 118.192 153.809 118.861C155.815 119.528 157.467 120.69 158.764 122.346C160.06 123.982 160.867 126.148 161.186 128.844L162.233 137.689L152.05 138.894L151.155 131.33C150.973 129.798 150.658 128.793 150.208 128.315C149.755 127.818 149.122 127.617 148.307 127.714C147.357 127.826 146.758 128.251 146.511 128.989C146.262 129.706 146.205 130.638 146.34 131.782L149.375 157.413C149.543 158.829 149.865 159.804 150.341 160.338C150.837 160.869 151.472 161.089 152.248 160.997C153.121 160.894 153.689 160.462 153.954 159.703C154.237 158.942 154.311 157.989 154.176 156.845L153.084 147.622L163.383 146.403L164.53 156.091C165.063 160.591 164.315 163.993 162.287 166.299C160.256 168.585 157.204 169.969 153.131 170.451ZM167.044 168.332L160.981 117.127L176.692 115.267C179.31 114.957 181.36 115.324 182.84 116.368C184.319 117.393 185.408 118.955 186.109 121.055C186.827 123.133 187.358 125.618 187.7 128.508C188.03 131.301 187.936 133.574 187.416 135.327C186.915 137.077 185.723 138.389 183.84 139.261C185.489 139.4 186.709 140.072 187.5 141.276C188.309 142.459 188.833 144.058 189.072 146.076L191.366 165.452L181.27 166.647L178.897 146.602C178.72 145.108 178.301 144.224 177.639 143.948C176.994 143.651 175.993 143.582 174.635 143.743L177.401 167.105L167.044 168.332ZM173.642 134.863L176.115 134.57C177.531 134.402 178.057 132.777 177.692 129.693C177.455 127.695 177.145 126.404 176.761 125.82C176.377 125.236 175.759 124.995 174.905 125.096L172.519 125.378L173.642 134.863ZM193.056 165.252L186.993 114.047L207.475 111.622L208.646 121.514L198.58 122.706L199.761 132.685L209.42 131.541L210.561 141.171L200.901 142.315L202.29 154.04L213.025 152.769L214.207 162.748L193.056 165.252ZM219.62 162.107L214.722 120.736L208.642 121.455L207.477 111.622L229.879 108.969L231.044 118.803L224.963 119.523L229.861 160.894L219.62 162.107ZM321.874 150L316.976 108.629L310.895 109.349L309.731 99.5152L332.133 96.8628L333.298 106.696L327.217 107.416L332.115 148.788L321.874 150ZM350.938 147.031C346.846 147.516 343.567 146.655 341.103 144.449C338.656 142.221 337.156 138.77 336.603 134.096L333.723 109.773C333.204 105.39 333.877 101.937 335.742 99.4152C337.626 96.891 340.634 95.3843 344.765 94.8952C348.897 94.4061 352.163 95.1698 354.566 97.1865C356.987 99.201 358.457 102.4 358.976 106.783L361.856 131.106C362.41 135.78 361.747 139.487 359.869 142.227C358.007 144.945 355.031 146.547 350.938 147.031ZM349.909 137.594C351.461 137.411 352.059 135.816 351.703 132.809L348.744 107.818C348.445 105.296 347.54 104.125 346.027 104.304C344.32 104.506 343.619 105.897 343.925 108.477L346.88 133.439C347.068 135.03 347.398 136.151 347.869 136.803C348.337 137.436 349.017 137.7 349.909 137.594ZM365.258 144.864L359.195 93.6588L372.724 92.057C375.555 91.7218 377.87 92.0869 379.668 93.1524C381.485 94.2156 382.891 95.8685 383.884 98.1111C384.877 100.354 385.564 103.085 385.945 106.304C386.313 109.408 386.333 112.149 386.005 114.528C385.674 116.888 384.808 118.79 383.406 120.235C382.023 121.677 379.915 122.566 377.083 122.901L372.923 123.394L375.324 143.672L365.258 144.864ZM371.835 114.2L372.416 114.131C374.317 113.906 375.418 113.235 375.718 112.118C376.019 111 376.046 109.404 375.8 107.329C375.571 105.389 375.18 103.921 374.63 102.924C374.096 101.905 373.053 101.488 371.502 101.672L370.367 101.806L371.835 114.2ZM414.835 139.466C410.16 140.019 406.648 139.255 404.297 137.173C401.965 135.089 400.499 131.506 399.897 126.425L399.305 121.421L409.429 120.222L410.187 126.622C410.327 127.806 410.612 128.716 411.041 129.353C411.488 129.969 412.157 130.224 413.05 130.119C413.981 130.008 414.588 129.661 414.873 129.077C415.177 128.49 415.256 127.576 415.109 126.335C414.923 124.764 414.613 123.473 414.179 122.462C413.742 121.432 413.079 120.488 412.191 119.629C411.32 118.749 410.13 117.749 408.62 116.63L403.507 112.81C399.69 109.977 397.535 106.476 397.041 102.306C396.525 97.942 397.139 94.4962 398.886 91.9687C400.651 89.4388 403.454 87.9466 407.295 87.4919C411.988 86.9362 415.463 87.7933 417.718 90.0635C419.993 92.3313 421.432 96.0157 422.036 101.117L411.62 102.35L411.204 98.8297C411.121 98.1314 410.853 97.6125 410.4 97.2728C409.966 96.9308 409.409 96.8 408.731 96.8803C407.916 96.9768 407.342 97.2807 407.01 97.7922C406.694 98.2819 406.578 98.8856 406.663 99.6032C406.748 100.321 407.034 101.074 407.521 101.862C408.008 102.65 408.887 103.519 410.16 104.47L416.738 109.444C418.054 110.429 419.282 111.493 420.42 112.637C421.556 113.761 422.524 115.121 423.323 116.718C424.119 118.296 424.658 120.277 424.941 122.663C425.51 127.473 425.065 131.351 423.604 134.297C422.161 137.222 419.238 138.945 414.835 139.466ZM427.758 137.464L421.695 86.2589L442.177 83.8339L443.348 93.7258L433.282 94.9176L434.463 104.897L444.122 103.753L445.263 113.383L435.604 114.527L436.992 126.251L447.727 124.98L448.909 134.96L427.758 137.464ZM461.913 133.892C458.208 134.331 455.085 133.53 452.542 131.491C450.019 129.449 448.512 126.353 448.02 122.202L445.223 98.578C444.635 93.6127 445.165 89.6952 446.811 86.8254C448.477 83.9533 451.531 82.2544 455.973 81.7285C458.397 81.4414 460.603 81.6326 462.59 82.3021C464.597 82.9693 466.248 84.1307 467.546 85.7866C468.841 87.423 469.648 89.5892 469.967 92.2852L471.015 101.13L460.832 102.335L459.936 94.7709C459.755 93.2387 459.439 92.2337 458.989 91.7559C458.537 91.2587 457.904 91.0584 457.089 91.1548C456.139 91.2674 455.54 91.6923 455.293 92.4296C455.043 93.1475 454.986 94.0786 455.122 95.2229L458.157 120.854C458.324 122.27 458.646 123.245 459.122 123.779C459.618 124.31 460.254 124.53 461.03 124.438C461.902 124.335 462.471 123.903 462.735 123.145C463.019 122.383 463.093 121.43 462.957 120.286L461.865 111.063L472.164 109.844L473.311 119.532C473.844 124.032 473.096 127.435 471.068 129.74C469.038 132.026 465.986 133.41 461.913 133.892ZM475.825 131.773L469.763 80.5679L485.473 78.7078C488.092 78.3977 490.141 78.7648 491.622 79.8089C493.1 80.8336 494.19 82.396 494.891 84.4961C495.609 86.5745 496.139 89.0587 496.481 91.9487C496.812 94.7417 496.717 97.0147 496.197 98.7677C495.696 100.518 494.504 101.83 492.621 102.702C494.27 102.841 495.49 103.513 496.282 104.717C497.091 105.9 497.614 107.499 497.853 109.517L500.147 128.893L490.052 130.088L487.679 110.043C487.502 108.549 487.082 107.665 486.42 107.389C485.775 107.092 484.774 107.023 483.416 107.184L486.182 130.546L475.825 131.773ZM482.424 98.3038L484.897 98.011C486.313 97.8433 486.838 96.2175 486.473 93.1336C486.237 91.1358 485.926 89.845 485.543 89.2611C485.159 88.6772 484.54 88.4357 483.687 88.5368L481.301 88.8192L482.424 98.3038ZM501.837 128.693L495.775 77.4881L516.257 75.0631L517.428 84.9549L507.361 86.1468L508.543 96.1259L518.202 94.9823L519.342 104.612L509.683 105.756L511.071 117.481L521.807 116.21L522.988 126.189L501.837 128.693ZM528.402 125.548L523.504 84.1765L517.423 84.8965L516.259 75.0628L538.661 72.4105L539.825 82.2441L533.745 82.964L538.643 124.335L528.402 125.548ZM619.074 114.812L614.176 73.4412L608.095 74.1611L606.931 64.3275L629.333 61.6751L630.497 71.5088L624.417 72.2287L629.315 113.6L619.074 114.812ZM648.138 111.843C644.045 112.328 640.767 111.467 638.303 109.261C635.856 107.033 634.356 103.582 633.803 98.9078L630.923 74.5855C630.404 70.2021 631.077 66.7494 632.942 64.2275C634.826 61.7033 637.834 60.1966 641.965 59.7075C646.097 59.2183 649.363 59.9821 651.766 61.9988C654.187 64.0132 655.657 67.2121 656.176 71.5956L659.056 95.9179C659.61 100.592 658.947 104.299 657.069 107.039C655.207 109.757 652.231 111.359 648.138 111.843ZM647.109 102.407C648.661 102.223 649.259 100.628 648.903 97.6215L645.944 72.6301C645.645 70.1086 644.74 68.9375 643.227 69.1166C641.52 69.3187 640.819 70.7095 641.125 73.2892L644.08 98.2515C644.268 99.842 644.598 100.963 645.068 101.616C645.537 102.249 646.217 102.512 647.109 102.407ZM662.457 109.676L656.395 58.4711L669.923 56.8693C672.755 56.534 675.07 56.8992 676.868 57.9647C678.685 59.0279 680.091 60.6808 681.084 62.9233C682.077 65.1659 682.764 67.897 683.145 71.1167C683.513 74.22 683.533 76.9613 683.205 79.3406C682.874 81.7005 682.008 83.6026 680.606 85.0471C679.223 86.4892 677.115 87.3779 674.283 87.7132L670.123 88.2058L672.524 108.484L662.457 109.676ZM669.034 79.0122L669.616 78.9433C671.517 78.7182 672.618 78.0471 672.918 76.9298C673.219 75.8125 673.246 74.2162 673 72.1408C672.771 70.2013 672.38 68.733 671.83 67.7362C671.296 66.7176 670.253 66.3002 668.702 66.4839L667.567 66.6183L669.034 79.0122ZM712.035 104.278C707.36 104.832 703.848 104.067 701.497 101.986C699.165 99.9015 697.699 96.3186 697.097 91.2369L696.504 86.2328L706.629 85.0341L707.387 91.4347C707.527 92.6179 707.812 93.5282 708.241 94.1657C708.688 94.7815 709.357 95.0366 710.249 94.931C711.18 94.8208 711.788 94.4734 712.073 93.889C712.377 93.3023 712.456 92.3883 712.309 91.147C712.123 89.5759 711.813 88.2851 711.379 87.2744C710.942 86.2444 710.279 85.3001 709.391 84.4416C708.52 83.5614 707.33 82.5616 705.82 81.4422L700.707 77.6224C696.89 74.7898 694.735 71.2884 694.241 67.1183C693.725 62.7543 694.339 59.3085 696.086 56.7809C697.851 54.2511 700.654 52.7589 704.495 52.3042C709.188 51.7484 712.663 52.6056 714.918 54.8757C717.193 57.1436 718.632 60.828 719.236 65.9291L708.82 67.1623L708.404 63.6419C708.321 62.9437 708.053 62.4247 707.6 62.085C707.166 61.7431 706.609 61.6122 705.931 61.6926C705.116 61.7891 704.542 62.093 704.209 62.6044C703.894 63.0942 703.778 63.6979 703.863 64.4155C703.948 65.1331 704.234 65.886 704.721 66.6741C705.207 67.4622 706.087 68.3316 707.36 69.2822L713.938 74.2563C715.254 75.2411 716.482 76.3054 717.62 77.449C718.756 78.5732 719.724 79.9337 720.522 81.5306C721.319 83.108 721.858 85.0896 722.141 87.4753C722.71 92.2854 722.265 96.1635 720.804 99.1096C719.361 102.034 716.438 103.757 712.035 104.278ZM724.958 102.276L718.895 51.0712L739.377 48.6462L740.548 58.538L730.482 59.7299L731.663 69.709L741.322 68.5654L742.463 78.1954L732.803 79.339L734.192 91.0637L744.927 89.7927L746.109 99.7718L724.958 102.276ZM759.113 98.7042C755.408 99.1428 752.285 98.3424 749.742 96.303C747.219 94.2613 745.712 91.165 745.22 87.0144L742.423 63.3903C741.835 58.425 742.365 54.5074 744.011 51.6377C745.677 48.7656 748.731 47.0666 753.173 46.5408C755.597 46.2537 757.803 46.4449 759.79 47.1144C761.797 47.7815 763.448 48.943 764.746 50.5988C766.041 52.2352 766.848 54.4015 767.167 57.0975L768.215 65.9419L758.032 67.1476L757.136 59.5832C756.955 58.0509 756.639 57.0459 756.189 56.5682C755.737 56.071 755.104 55.8707 754.289 55.9671C753.339 56.0796 752.74 56.5045 752.493 57.2418C752.243 57.9597 752.186 58.8908 752.322 60.0352L755.357 85.6667C755.524 87.0826 755.846 88.0574 756.322 88.591C756.818 89.1224 757.454 89.3421 758.23 89.2503C759.102 89.1469 759.671 88.7158 759.935 87.9568C760.219 87.1955 760.293 86.2427 760.157 85.0984L759.065 75.8757L769.364 74.6563L770.511 84.3445C771.044 88.8443 770.296 92.2468 768.268 94.552C766.238 96.8379 763.186 98.2219 759.113 98.7042ZM773.025 96.585L766.963 45.3801L782.673 43.52C785.292 43.21 787.341 43.5771 788.822 44.6211C790.3 45.6458 791.39 47.2082 792.091 49.3083C792.809 51.3868 793.339 53.871 793.681 56.7609C794.012 59.5539 793.917 61.8269 793.397 63.5799C792.896 65.3306 791.704 66.642 789.821 67.514C791.47 67.6531 792.69 68.3248 793.482 69.5292C794.291 70.7118 794.814 72.3117 795.053 74.3289L797.347 93.7053L787.252 94.9006L784.878 74.855C784.702 73.3616 784.282 72.477 783.62 72.2014C782.975 71.904 781.974 71.8357 780.616 71.9965L783.382 95.3587L773.025 96.585ZM779.624 63.116L782.097 62.8232C783.513 62.6556 784.038 61.0298 783.673 57.9459C783.437 55.9481 783.126 54.6573 782.743 54.0734C782.359 53.4894 781.74 53.248 780.887 53.349L778.501 53.6315L779.624 63.116ZM799.037 93.5052L792.975 42.3004L813.456 39.8754L814.628 49.7672L804.561 50.959L805.743 60.9382L815.402 59.7946L816.542 69.4246L806.883 70.5682L808.271 82.2929L819.007 81.0219L820.188 91.001L799.037 93.5052ZM825.602 90.36L820.704 48.9888L814.623 49.7087L813.459 39.8751L835.861 37.2227L837.025 47.0564L830.945 47.7763L835.843 89.1475L825.602 90.36ZM927.856 78.2534L922.957 36.8822L916.877 37.6022L915.713 27.7685L938.115 25.1161L939.279 34.9498L933.198 35.6697L938.097 77.0409L927.856 78.2534ZM956.92 75.2844C952.827 75.7689 949.549 74.9081 947.085 72.7021C944.638 70.4743 943.138 67.0233 942.584 62.3489L939.705 38.0266C939.186 33.6431 939.859 30.1904 941.723 27.6685C943.608 25.1443 946.615 23.6377 950.747 23.1485C954.878 22.6594 958.145 23.4232 960.547 25.4399C962.969 27.4543 964.439 30.6532 964.958 35.0366L967.838 59.3589C968.391 64.0333 967.729 67.7404 965.85 70.4803C963.989 73.1985 961.012 74.7998 956.92 75.2844ZM955.891 65.8477C957.442 65.664 958.04 64.0689 957.684 61.0626L954.725 36.0711C954.427 33.5497 953.521 32.3785 952.008 32.5576C950.301 32.7597 949.601 34.1506 949.906 36.7302L952.862 61.6926C953.05 63.283 953.379 64.4044 953.85 65.0567C954.318 65.6897 954.999 65.9533 955.891 65.8477ZM971.239 73.1169L965.177 21.9121L978.705 20.3103C981.537 19.9751 983.852 20.3402 985.65 21.4057C987.467 22.469 988.872 24.1218 989.865 26.3644C990.859 28.6069 991.546 31.338 991.927 34.5577C992.294 37.661 992.314 40.4023 991.986 42.7816C991.656 45.1415 990.79 47.0437 989.387 48.4881C988.004 49.9302 985.897 50.819 983.065 51.1542L978.905 51.6468L981.306 71.9251L971.239 73.1169ZM977.816 42.4532L978.398 42.3843C980.299 42.1593 981.399 41.4881 981.7 40.3708C982 39.2535 982.028 37.6572 981.782 35.5819C981.552 33.6423 981.162 32.1741 980.611 31.1772C980.078 30.1587 979.035 29.7413 977.483 29.925L976.349 30.0593L977.816 42.4532ZM1020.82 67.7192C1016.14 68.2726 1012.63 67.5084 1010.28 65.4266C1007.95 63.3426 1006.48 59.7597 1005.88 54.678L1005.29 49.6739L1015.41 48.4752L1016.17 54.8758C1016.31 56.0589 1016.59 56.9692 1017.02 57.6067C1017.47 58.2226 1018.14 58.4777 1019.03 58.372C1019.96 58.2618 1020.57 57.9145 1020.85 57.3301C1021.16 56.7434 1021.24 55.8293 1021.09 54.588C1020.9 53.0169 1020.59 51.7261 1020.16 50.7155C1019.72 49.6854 1019.06 48.7412 1018.17 47.8826C1017.3 47.0024 1016.11 46.0026 1014.6 44.8832L1009.49 41.0634C1005.67 38.2308 1003.52 34.7294 1003.02 30.5593C1002.51 26.1953 1003.12 22.7495 1004.87 20.222C1006.63 17.6921 1009.44 16.1999 1013.28 15.7452C1017.97 15.1895 1021.44 16.0467 1023.7 18.3168C1025.97 20.5846 1027.41 24.2691 1028.02 29.3701L1017.6 30.6033L1017.19 27.083C1017.1 26.3847 1016.83 25.8658 1016.38 25.5261C1015.95 25.1841 1015.39 25.0533 1014.71 25.1337C1013.9 25.2301 1013.32 25.534 1012.99 26.0455C1012.68 26.5352 1012.56 27.1389 1012.64 27.8565C1012.73 28.5742 1013.02 29.3271 1013.5 30.1151C1013.99 30.9032 1014.87 31.7726 1016.14 32.7233L1022.72 37.6973C1024.04 38.6822 1025.26 39.7464 1026.4 40.89C1027.54 42.0142 1028.51 43.3748 1029.3 44.9716C1030.1 46.5491 1030.64 48.5306 1030.92 50.9163C1031.49 55.7265 1031.05 59.6046 1029.59 62.5507C1028.14 65.475 1025.22 67.1979 1020.82 67.7192ZM1033.74 65.7171L1027.68 14.5122L1048.16 12.0872L1049.33 21.9791L1039.26 23.1709L1040.44 33.15L1050.1 32.0064L1051.24 41.6364L1041.59 42.78L1042.97 54.5048L1053.71 53.2337L1054.89 63.2128L1033.74 65.7171ZM1067.89 62.1452C1064.19 62.5838 1061.07 61.7834 1058.52 59.744C1056 57.7023 1054.49 54.6061 1054 50.4554L1051.2 26.8313C1050.62 21.866 1051.15 17.9485 1052.79 15.0787C1054.46 12.2067 1057.51 10.5077 1061.95 9.98181C1064.38 9.69476 1066.58 9.88596 1068.57 10.5554C1070.58 11.2226 1072.23 12.3841 1073.53 14.0399C1074.82 15.6763 1075.63 17.8425 1075.95 20.5385L1077 29.383L1066.81 30.5886L1065.92 23.0243C1065.74 21.492 1065.42 20.487 1064.97 20.0092C1064.52 19.5121 1063.89 19.3117 1063.07 19.4082C1062.12 19.5207 1061.52 19.9456 1061.27 20.6829C1061.02 21.4008 1060.97 22.3319 1061.1 23.4762L1064.14 49.1078C1064.31 50.5237 1064.63 51.4984 1065.1 52.0321C1065.6 52.5634 1066.24 52.7832 1067.01 52.6913C1067.88 52.588 1068.45 52.1568 1068.72 51.3978C1069 50.6366 1069.07 49.6837 1068.94 48.5394L1067.85 39.3167L1078.15 38.0973L1079.29 47.7855C1079.83 52.2853 1079.08 55.6879 1077.05 57.9931C1075.02 60.2789 1071.97 61.663 1067.89 62.1452ZM1081.81 60.026L1075.74 8.82118L1091.45 6.96108C1094.07 6.65107 1096.12 7.0181 1097.6 8.06219C1099.08 9.08688 1100.17 10.6493 1100.87 12.7494C1101.59 14.8278 1102.12 17.312 1102.46 20.202C1102.79 22.995 1102.7 25.268 1102.18 27.021C1101.68 28.7717 1100.49 30.083 1098.6 30.955C1100.25 31.0942 1101.47 31.7659 1102.26 32.9702C1103.07 34.1529 1103.6 35.7528 1103.83 37.7699L1106.13 57.1463L1096.03 58.3416L1093.66 38.2961C1093.48 36.8026 1093.06 35.918 1092.4 35.6424C1091.76 35.3451 1090.76 35.2768 1089.4 35.4375L1092.16 58.7997L1081.81 60.026ZM1088.41 26.5571L1090.88 26.2643C1092.29 26.0966 1092.82 24.4709 1092.45 21.3869C1092.22 19.3892 1091.91 18.0983 1091.52 17.5144C1091.14 16.9305 1090.52 16.689 1089.67 16.7901L1087.28 17.0725L1088.41 26.5571ZM1107.82 56.9463L1101.76 5.7414L1122.24 3.31639L1123.41 13.2082L1113.34 14.4001L1114.52 24.3792L1124.18 23.2356L1125.32 32.8656L1115.66 34.0092L1117.05 45.734L1127.79 44.4629L1128.97 54.442L1107.82 56.9463ZM1134.38 53.801L1129.49 12.4299L1123.4 13.1498L1122.24 3.31612L1144.64 0.663765L1145.81 10.4974L1139.73 11.2173L1144.62 52.5885L1134.38 53.801Z" fill="black"/>
</svg>
