<svg width="100%" height="938" viewBox="0 0 1280 938" fill="none" xmlns="http://www.w3.org/2000/svg">

<g filter="url(#filter1_f_0_1)">
<rect x="-561" y="376.706" width="1345.41" height="99" transform="rotate(-21.2079 -561 376.706)" fill="#E9E9E9"/>
<path d="M-437.855 409.37L-452.926 370.532L-458.634 372.747L-462.216 363.515L-441.186 355.354L-437.603 364.586L-443.312 366.801L-428.241 405.64L-437.855 409.37ZM-410.453 399.24C-414.295 400.731 -417.684 400.716 -420.621 399.195C-423.546 397.648 -425.86 394.681 -427.563 390.293L-436.423 367.459C-438.02 363.344 -438.23 359.833 -437.054 356.925C-435.86 354.01 -433.323 351.801 -429.445 350.296C-425.566 348.791 -422.212 348.715 -419.383 350.068C-416.535 351.414 -414.313 354.145 -412.716 358.26L-403.856 381.093C-402.153 385.482 -401.869 389.237 -403.004 392.359C-404.128 395.455 -406.611 397.749 -410.453 399.24ZM-413.805 390.359C-412.348 389.794 -412.167 388.1 -413.262 385.278L-422.366 361.816C-423.285 359.449 -424.454 358.541 -425.874 359.092C-427.477 359.714 -427.808 361.236 -426.868 363.657L-417.775 387.092C-417.196 388.585 -416.597 389.588 -415.978 390.102C-415.367 390.598 -414.642 390.684 -413.805 390.359ZM-397.128 393.567L-415.781 345.496L-403.08 340.568C-400.422 339.537 -398.089 339.312 -396.082 339.895C-394.057 340.471 -392.283 341.721 -390.762 343.645C-389.24 345.568 -387.893 348.041 -386.72 351.064C-385.59 353.977 -384.886 356.627 -384.61 359.013C-384.341 361.38 -384.705 363.438 -385.702 365.187C-386.681 366.929 -388.5 368.316 -391.159 369.347L-395.064 370.863L-387.677 389.9L-397.128 393.567ZM-398.413 362.232L-397.867 362.02C-396.083 361.328 -395.185 360.403 -395.173 359.246C-395.161 358.089 -395.533 356.536 -396.289 354.588C-396.995 352.767 -397.739 351.443 -398.522 350.615C-399.293 349.762 -400.406 349.618 -401.863 350.183L-402.928 350.597L-398.413 362.232ZM-350.467 375.964C-354.856 377.667 -358.448 377.803 -361.244 376.374C-364.022 374.938 -366.337 371.835 -368.188 367.064L-370.011 362.367L-360.506 358.678L-358.174 364.687C-357.743 365.798 -357.24 366.608 -356.665 367.118C-356.079 367.603 -355.367 367.683 -354.529 367.358C-353.655 367.019 -353.153 366.531 -353.024 365.894C-352.875 365.25 -353.027 364.345 -353.48 363.18C-354.052 361.705 -354.675 360.532 -355.347 359.662C-356.027 358.774 -356.905 358.025 -357.979 357.415C-359.043 356.78 -360.445 356.109 -362.186 355.402L-368.091 352.98C-372.494 351.19 -375.455 348.337 -376.974 344.422C-378.563 340.325 -378.828 336.835 -377.768 333.952C-376.69 331.061 -374.348 328.917 -370.743 327.518C-366.337 325.808 -362.758 325.77 -360.008 327.406C-357.239 329.034 -354.926 332.242 -353.067 337.031L-362.845 340.825L-364.128 337.521C-364.382 336.865 -364.771 336.429 -365.295 336.214C-365.8 335.991 -366.372 336.003 -367.009 336.25C-367.774 336.547 -368.253 336.985 -368.448 337.563C-368.631 338.116 -368.592 338.729 -368.331 339.403C-368.07 340.077 -367.605 340.734 -366.937 341.376C-366.269 342.018 -365.2 342.64 -363.73 343.243L-356.119 346.417C-354.598 347.042 -353.144 347.767 -351.756 348.59C-350.375 349.395 -349.099 350.471 -347.927 351.818C-346.762 353.146 -345.745 354.93 -344.876 357.17C-343.123 361.686 -342.587 365.552 -343.266 368.77C-343.934 371.962 -346.334 374.36 -350.467 375.964ZM-338.453 370.799L-357.106 322.729L-337.878 315.268L-334.275 324.554L-343.725 328.221L-340.09 337.589L-331.022 334.071L-327.514 343.111L-336.582 346.63L-332.311 357.637L-322.232 353.726L-318.597 363.094L-338.453 370.799ZM-306.271 358.814C-309.749 360.164 -312.973 360.168 -315.945 358.828C-318.898 357.481 -321.13 354.859 -322.642 350.962L-331.248 328.785C-333.057 324.123 -333.522 320.198 -332.644 317.008C-331.747 313.811 -329.214 311.403 -325.045 309.785C-322.769 308.902 -320.585 308.536 -318.494 308.689C-316.384 308.834 -314.495 309.546 -312.825 310.826C-311.162 312.087 -309.84 313.983 -308.858 316.514L-305.636 324.817L-315.195 328.526L-317.951 321.425C-318.509 319.987 -319.066 319.092 -319.621 318.742C-320.183 318.373 -320.846 318.338 -321.611 318.634C-322.503 318.981 -322.977 319.541 -323.032 320.317C-323.094 321.074 -322.917 321.99 -322.5 323.065L-313.163 347.127C-312.647 348.456 -312.092 349.32 -311.498 349.718C-310.885 350.109 -310.215 350.163 -309.486 349.88C-308.667 349.562 -308.224 349.003 -308.158 348.202C-308.073 347.394 -308.239 346.453 -308.656 345.378L-312.016 336.72L-302.347 332.969L-298.818 342.064C-297.179 346.288 -297.054 349.769 -298.442 352.508C-299.838 355.228 -302.447 357.33 -306.271 358.814ZM-293.328 353.289L-311.981 305.219L-297.232 299.496C-294.774 298.542 -292.698 298.386 -291.004 299.027C-289.316 299.65 -287.871 300.891 -286.668 302.75C-285.454 304.583 -284.32 306.856 -283.267 309.569C-282.25 312.192 -281.774 314.416 -281.84 316.244C-281.888 318.064 -282.715 319.631 -284.321 320.946C-282.69 320.669 -281.34 321.015 -280.273 321.983C-279.195 322.927 -278.288 324.345 -277.553 326.239L-270.495 344.429L-279.972 348.107L-287.275 329.288C-287.819 327.886 -288.446 327.134 -289.155 327.033C-289.854 326.906 -290.841 327.09 -292.115 327.584L-283.605 349.516L-293.328 353.289ZM-295.293 319.233L-292.972 318.332C-291.642 317.816 -291.54 316.11 -292.663 313.215C-293.391 311.34 -294.013 310.167 -294.531 309.698C-295.048 309.228 -295.707 309.149 -296.509 309.46L-298.748 310.329L-295.293 319.233ZM-268.909 343.814L-287.562 295.743L-268.333 288.282L-264.73 297.568L-274.18 301.235L-270.545 310.604L-261.477 307.085L-257.969 316.125L-267.037 319.644L-262.766 330.651L-252.687 326.74L-249.052 336.109L-268.909 343.814ZM-243.97 334.136L-259.041 295.298L-264.749 297.513L-268.331 288.281L-247.3 280.12L-243.718 289.352L-249.427 291.567L-234.356 330.406L-243.97 334.136ZM-147.976 296.888L-163.046 258.049L-168.755 260.264L-172.337 251.032L-151.306 242.872L-147.724 252.103L-153.432 254.318L-138.361 293.157L-147.976 296.888ZM-120.573 286.757C-124.415 288.248 -127.804 288.233 -130.741 286.712C-133.667 285.165 -135.981 282.198 -137.683 277.81L-146.544 254.976C-148.14 250.861 -148.351 247.35 -147.174 244.442C-145.98 241.528 -143.443 239.318 -139.565 237.813C-135.687 236.308 -132.333 236.232 -129.503 237.585C-126.655 238.931 -124.433 241.662 -122.836 245.777L-113.976 268.611C-112.273 272.999 -111.989 276.754 -113.124 279.876C-114.248 282.973 -116.731 285.266 -120.573 286.757ZM-123.925 277.876C-122.468 277.311 -122.288 275.617 -123.383 272.795L-132.487 249.333C-133.405 246.966 -134.574 246.058 -135.995 246.609C-137.597 247.231 -137.928 248.753 -136.989 251.174L-127.895 274.609C-127.316 276.102 -126.717 277.105 -126.099 277.62C-125.487 278.116 -124.763 278.201 -123.925 277.876ZM-107.248 281.084L-125.901 233.013L-113.2 228.085C-110.542 227.054 -108.209 226.829 -106.202 227.412C-104.177 227.988 -102.404 229.238 -100.882 231.162C-99.3606 233.085 -98.0134 235.558 -96.8405 238.581C-95.71 241.494 -95.0066 244.144 -94.7303 246.53C-94.461 248.897 -94.8251 250.956 -95.8225 252.704C-96.8017 254.446 -98.6206 255.833 -101.279 256.864L-105.185 258.38L-97.7978 277.417L-107.248 281.084ZM-108.534 249.749L-107.988 249.537C-106.203 248.845 -105.305 247.92 -105.293 246.763C-105.281 245.606 -105.653 244.054 -106.409 242.105C-107.115 240.284 -107.86 238.96 -108.642 238.132C-109.413 237.279 -110.527 237.135 -111.983 237.701L-113.049 238.114L-108.534 249.749ZM-60.5878 263.481C-64.976 265.184 -68.5682 265.321 -71.3644 263.892C-74.1423 262.456 -76.4569 259.352 -78.308 254.582L-80.1309 249.884L-70.6261 246.196L-68.2945 252.204C-67.8635 253.315 -67.3605 254.126 -66.7854 254.636C-66.1993 255.121 -65.4874 255.2 -64.6498 254.875C-63.7758 254.536 -63.2738 254.048 -63.1439 253.411C-62.9958 252.767 -63.1478 251.862 -63.6 250.697C-64.1723 249.222 -64.7949 248.05 -65.4678 247.179C-66.1477 246.291 -67.0249 245.542 -68.0995 244.932C-69.1629 244.298 -70.565 243.626 -72.306 242.919L-78.2111 240.497C-82.6139 238.707 -85.5749 235.854 -87.094 231.939C-88.6837 227.842 -88.9486 224.352 -87.8886 221.469C-86.8105 218.578 -84.4688 216.434 -80.8635 215.035C-76.457 213.325 -72.8786 213.288 -70.1281 214.923C-67.3593 216.551 -65.0459 219.76 -63.1877 224.548L-72.9656 228.343L-74.248 225.038C-74.5023 224.382 -74.8914 223.947 -75.4151 223.731C-75.9205 223.508 -76.4919 223.52 -77.1292 223.767C-77.894 224.064 -78.3737 224.502 -78.5683 225.08C-78.7517 225.633 -78.7127 226.246 -78.4513 226.92C-78.1899 227.594 -77.7252 228.252 -77.0572 228.893C-76.3892 229.535 -75.3202 230.157 -73.8503 230.76L-66.2391 233.934C-64.7186 234.56 -63.2644 235.284 -61.8765 236.107C-60.4957 236.912 -59.2192 237.988 -58.0471 239.335C-56.8821 240.663 -55.8651 242.448 -54.996 244.687C-53.2438 249.203 -52.7071 253.07 -53.3861 256.287C-54.0539 259.479 -56.4544 261.877 -60.5878 263.481ZM-48.5737 258.316L-67.2266 210.246L-47.9984 202.785L-44.395 212.071L-53.8452 215.738L-50.21 225.106L-41.1422 221.588L-37.6342 230.628L-46.702 234.147L-42.4309 245.154L-32.3525 241.243L-28.7173 250.611L-48.5737 258.316ZM-16.3914 246.331C-19.8693 247.681 -23.0938 247.686 -26.0649 246.345C-29.0179 244.998 -31.2504 242.376 -32.7624 238.48L-41.3682 216.302C-43.177 211.64 -43.6423 207.715 -42.7641 204.525C-41.8678 201.328 -39.3347 198.92 -35.165 197.302C-32.8889 196.419 -30.7053 196.054 -28.614 196.206C-26.5046 196.351 -24.615 197.063 -22.9453 198.343C-21.2827 199.604 -19.9603 201.5 -18.9782 204.031L-15.7563 212.334L-25.3158 216.044L-28.0713 208.942C-28.6295 207.504 -29.1861 206.61 -29.741 206.259C-30.303 205.891 -30.9664 205.855 -31.7311 206.152C-32.6234 206.498 -33.0971 207.059 -33.1522 207.834C-33.2145 208.592 -33.0372 209.508 -32.6203 210.582L-23.2833 234.644C-22.7675 235.974 -22.2124 236.837 -21.6181 237.235C-21.0055 237.626 -20.3351 237.68 -19.6068 237.397C-18.7874 237.079 -18.3445 236.52 -18.2782 235.719C-18.1937 234.911 -18.3598 233.97 -18.7767 232.896L-22.1363 224.237L-12.4676 220.486L-8.93841 229.581C-7.29922 233.805 -7.17388 237.287 -8.5624 240.025C-9.95798 242.746 -12.5677 244.848 -16.3914 246.331ZM-3.44869 240.806L-22.1016 192.736L-7.3527 187.013C-4.89456 186.059 -2.81827 185.903 -1.12382 186.544C0.563559 187.167 2.00878 188.408 3.21184 190.267C4.42605 192.1 5.55953 194.374 6.61229 197.087C7.62972 199.709 8.10539 201.933 8.03931 203.761C7.99144 205.581 7.16455 207.148 5.55866 208.463C7.19008 208.186 8.53939 208.532 9.60659 209.5C10.6849 210.444 11.5915 211.862 12.3263 213.756L19.3847 231.946L9.90723 235.624L2.60505 216.805C2.06101 215.403 1.43406 214.651 0.724211 214.55C0.0255038 214.423 -0.961146 214.607 -2.23574 215.101L6.27464 237.033L-3.44869 240.806ZM-5.41357 206.75L-3.09199 205.849C-1.76277 205.333 -1.65987 203.628 -2.78328 200.732C-3.51103 198.857 -4.13362 197.684 -4.65105 197.215C-5.16848 196.745 -5.82778 196.666 -6.62895 196.977L-8.8686 197.846L-5.41357 206.75ZM20.971 231.331L2.31816 183.26L21.5463 175.799L25.1497 185.085L15.6995 188.752L19.3347 198.121L28.4025 194.602L31.9105 203.643L22.8427 207.161L27.1138 218.168L37.1922 214.258L40.8274 223.626L20.971 231.331ZM45.9097 221.654L30.839 182.815L25.1307 185.03L21.5485 175.798L42.5793 167.638L46.1615 176.869L40.4531 179.084L55.5238 217.923L45.9097 221.654ZM131.031 188.624L115.961 149.785L110.252 152L106.67 142.768L127.701 134.608L131.283 143.839L125.575 146.054L140.646 184.893L131.031 188.624ZM158.434 178.493C154.592 179.984 151.203 179.969 148.266 178.448C145.34 176.901 143.026 173.934 141.324 169.546L132.463 146.712C130.867 142.597 130.656 139.086 131.833 136.178C133.027 133.264 135.564 131.054 139.442 129.549C143.32 128.044 146.674 127.968 149.504 129.321C152.352 130.667 154.574 133.398 156.171 137.513L165.031 160.347C166.734 164.735 167.018 168.49 165.883 171.612C164.759 174.709 162.276 177.003 158.434 178.493ZM155.082 169.612C156.539 169.047 156.72 167.353 155.624 164.531L146.521 141.069C145.602 138.702 144.433 137.794 143.012 138.345C141.41 138.967 141.079 140.489 142.018 142.911L151.112 166.345C151.691 167.838 152.29 168.842 152.909 169.356C153.52 169.852 154.245 169.937 155.082 169.612ZM171.759 172.82L153.106 124.75L165.807 119.821C168.465 118.79 170.798 118.566 172.805 119.149C174.83 119.725 176.603 120.974 178.125 122.898C179.646 124.821 180.994 127.295 182.167 130.317C183.297 133.231 184 135.88 184.277 138.266C184.546 140.634 184.182 142.692 183.185 144.441C182.205 146.182 180.386 147.569 177.728 148.601L173.822 150.116L181.209 169.153L171.759 172.82ZM170.473 141.485L171.02 141.273C172.804 140.581 173.702 139.656 173.714 138.499C173.726 137.342 173.354 135.79 172.598 133.841C171.892 132.021 171.147 130.696 170.365 129.868C169.594 129.015 168.48 128.871 167.024 129.437L165.958 129.85L170.473 141.485ZM218.419 155.217C214.031 156.92 210.439 157.057 207.643 155.628C204.865 154.192 202.55 151.088 200.699 146.318L198.876 141.62L208.381 137.932L210.713 143.941C211.144 145.051 211.647 145.862 212.222 146.372C212.808 146.857 213.52 146.937 214.357 146.612C215.231 146.272 215.733 145.784 215.863 145.147C216.011 144.503 215.859 143.599 215.407 142.433C214.835 140.958 214.212 139.786 213.539 138.916C212.859 138.027 211.982 137.278 210.908 136.669C209.844 136.034 208.442 135.363 206.701 134.655L200.796 132.233C196.393 130.443 193.432 127.59 191.913 123.676C190.323 119.579 190.058 116.088 191.118 113.205C192.197 110.315 194.538 108.17 198.144 106.771C202.55 105.061 206.128 105.024 208.879 106.659C211.648 108.287 213.961 111.496 215.819 116.285L206.041 120.079L204.759 116.774C204.505 116.118 204.116 115.683 203.592 115.467C203.086 115.244 202.515 115.256 201.878 115.504C201.113 115.8 200.633 116.238 200.439 116.816C200.255 117.369 200.294 117.983 200.556 118.656C200.817 119.33 201.282 119.988 201.95 120.629C202.618 121.271 203.687 121.893 205.157 122.496L212.768 125.671C214.288 126.296 215.743 127.02 217.131 127.843C218.511 128.648 219.788 129.724 220.96 131.071C222.125 132.4 223.142 134.184 224.011 136.423C225.763 140.939 226.3 144.806 225.621 148.023C224.953 151.215 222.553 153.613 218.419 155.217ZM230.433 150.052L211.78 101.982L231.009 94.5209L234.612 103.807L225.162 107.474L228.797 116.843L237.865 113.324L241.373 122.364L232.305 125.883L236.576 136.89L246.654 132.979L250.29 142.348L230.433 150.052ZM262.616 138.067C259.138 139.417 255.913 139.422 252.942 138.082C249.989 136.734 247.757 134.112 246.245 130.216L237.639 108.038C235.83 103.377 235.365 99.4508 236.243 96.2609C237.139 93.0638 239.672 90.6563 243.842 89.0383C246.118 88.1551 248.302 87.7897 250.393 87.9419C252.502 88.0871 254.392 88.7994 256.062 90.0789C257.724 91.3402 259.047 93.2364 260.029 95.7674L263.251 104.07L253.691 107.78L250.936 100.678C250.378 99.24 249.821 98.3456 249.266 97.9953C248.704 97.6268 248.041 97.5909 247.276 97.8876C246.384 98.2339 245.91 98.7948 245.855 99.5704C245.793 100.328 245.97 101.244 246.387 102.318L255.724 126.38C256.24 127.71 256.795 128.573 257.389 128.971C258.002 129.362 258.672 129.416 259.4 129.133C260.22 128.815 260.663 128.256 260.729 127.455C260.813 126.647 260.647 125.706 260.23 124.632L256.871 115.974L266.539 112.222L270.069 121.317C271.708 125.541 271.833 129.023 270.445 131.761C269.049 134.482 266.439 136.584 262.616 138.067ZM275.558 132.543L256.905 84.4721L271.654 78.7491C274.112 77.7952 276.189 77.639 277.883 78.2804C279.571 78.9036 281.016 80.1445 282.219 82.0032C283.433 83.8365 284.567 86.1098 285.619 88.8228C286.637 91.4448 287.112 93.6695 287.046 95.4969C286.998 97.3172 286.172 98.8846 284.566 100.199C286.197 99.9222 287.546 100.268 288.614 101.237C289.692 102.18 290.599 103.598 291.333 105.492L298.392 123.682L288.914 127.36L281.612 108.542C281.068 107.139 280.441 106.388 279.731 106.286C279.033 106.159 278.046 106.343 276.771 106.837L285.282 128.77L275.558 132.543ZM273.593 98.4859L275.915 97.585C277.244 97.0692 277.347 95.3638 276.224 92.4686C275.496 90.5931 274.873 89.4206 274.356 88.951C273.839 88.4813 273.179 88.402 272.378 88.7129L270.138 89.5819L273.593 98.4859ZM299.978 123.067L281.325 74.9965L300.553 67.5353L304.157 76.8216L294.707 80.4886L298.342 89.8569L307.41 86.3383L310.918 95.3788L301.85 98.8974L306.121 109.904L316.199 105.994L319.834 115.362L299.978 123.067ZM324.917 113.39L309.846 74.5511L304.138 76.7662L300.556 67.5345L321.586 59.3738L325.169 68.6055L319.46 70.8205L334.531 109.659L324.917 113.39ZM420.911 76.1409L405.84 37.3022L400.132 39.5172L396.55 30.2855L417.581 22.1249L421.163 31.3566L415.455 33.5716L430.525 72.4103L420.911 76.1409ZM448.314 66.0106C444.472 67.5014 441.082 67.4862 438.146 65.9651C435.22 64.4187 432.906 61.4514 431.203 57.0631L422.343 34.2297C420.746 30.1146 420.536 26.6032 421.712 23.6956C422.907 20.781 425.443 18.5712 429.322 17.0662C433.2 15.5613 436.554 15.4854 439.384 16.8386C442.231 18.1847 444.454 20.9153 446.051 25.0304L454.911 47.8638C456.613 52.2521 456.897 56.0072 455.762 59.1292C454.639 62.226 452.156 64.5198 448.314 66.0106ZM444.962 57.1295C446.418 56.5642 446.599 54.8705 445.504 52.0481L436.4 28.5865C435.482 26.2194 434.312 25.3114 432.892 25.8625C431.29 26.4843 430.958 28.006 431.898 30.4278L440.991 53.8621C441.571 55.3552 442.17 56.3588 442.788 56.873C443.4 57.369 444.124 57.4545 444.962 57.1295ZM461.639 60.3372L442.986 12.2668L455.686 7.33862C458.345 6.30706 460.677 6.08277 462.684 6.66576C464.71 7.24168 466.483 8.49143 468.005 10.415C469.526 12.3386 470.873 14.8117 472.046 17.8343C473.177 20.7477 473.88 23.3973 474.156 25.7831C474.426 28.1508 474.062 30.209 473.064 31.9578C472.085 33.6995 470.266 35.0861 467.608 36.1177L463.702 37.6332L471.089 56.6702L461.639 60.3372ZM460.353 29.0024L460.899 28.7904C462.684 28.098 463.582 27.1734 463.594 26.0165C463.606 24.8596 463.234 23.3069 462.478 21.3586C461.771 19.5378 461.027 18.2135 460.245 17.3856C459.474 16.5325 458.36 16.3886 456.903 16.9539L455.838 17.3672L460.353 29.0024ZM508.299 42.7343C503.911 44.4371 500.319 44.574 497.522 43.145C494.744 41.7089 492.43 38.6056 490.579 33.8349L488.756 29.1371L498.261 25.449L500.592 31.4578C501.023 32.5685 501.526 33.3789 502.101 33.889C502.687 34.3739 503.399 34.4538 504.237 34.1288C505.111 33.7896 505.613 33.3015 505.743 32.6645C505.891 32.0204 505.739 31.1157 505.287 29.9504C504.714 28.4755 504.092 27.3029 503.419 26.4327C502.739 25.5443 501.862 24.7953 500.787 24.1857C499.724 23.5508 498.322 22.8798 496.581 22.1726L490.676 19.7503C486.273 17.96 483.312 15.1075 481.793 11.1927C480.203 7.09578 479.938 3.60562 480.998 0.722213C482.076 -2.16826 484.418 -4.31298 488.023 -5.71195C492.43 -7.4218 496.008 -7.45908 498.759 -5.8238C501.527 -4.19559 503.841 -0.987066 505.699 3.80176L495.921 7.59593L494.639 4.29109C494.384 3.63558 493.995 3.19994 493.472 2.98414C492.966 2.76128 492.395 2.7735 491.757 3.02079C490.993 3.31754 490.513 3.75507 490.318 4.33338C490.135 4.88642 490.174 5.4998 490.435 6.17351C490.697 6.84723 491.162 7.50491 491.83 8.14657C492.498 8.78822 493.566 9.41045 495.036 10.0133L502.648 13.1878C504.168 13.8129 505.622 14.5371 507.01 15.3603C508.391 16.1653 509.667 17.2412 510.84 18.5881C512.005 19.9168 513.022 21.701 513.891 23.9406C515.643 28.4563 516.18 32.3229 515.501 35.5403C514.833 38.7324 512.432 41.1305 508.299 42.7343ZM520.313 37.5697L501.66 -10.5007L520.888 -17.9619L524.492 -8.67554L515.041 -5.00855L518.677 4.35971L527.744 0.841095L531.253 9.8816L522.185 13.4002L526.456 24.4072L536.534 20.4965L540.169 29.8648L520.313 37.5697ZM552.495 25.5847C549.017 26.9342 545.793 26.9389 542.822 25.5987C539.869 24.2515 537.636 21.6296 536.124 17.733L527.518 -4.44492C525.71 -9.10629 525.244 -13.032 526.123 -16.2219C527.019 -19.419 529.552 -21.8265 533.722 -23.4445C535.998 -24.3276 538.181 -24.6931 540.273 -24.5409C542.382 -24.3957 544.272 -23.6834 545.941 -22.4039C547.604 -21.1426 548.926 -19.2464 549.908 -16.7154L553.13 -8.41237L543.571 -4.70299L540.815 -11.8043C540.257 -13.2428 539.701 -14.1372 539.146 -14.4875C538.584 -14.856 537.92 -14.8919 537.156 -14.5951C536.263 -14.2489 535.79 -13.688 535.734 -12.9124C535.672 -12.155 535.849 -11.2391 536.266 -10.1648L545.603 13.8977C546.119 15.2269 546.674 16.0904 547.269 16.4883C547.881 16.8791 548.552 16.9332 549.28 16.6506C550.099 16.3327 550.542 15.7732 550.608 14.9723C550.693 14.1644 550.527 13.2233 550.11 12.149L546.75 3.49083L556.419 -0.260947L559.948 8.83419C561.587 13.0586 561.713 16.54 560.324 19.2786C558.929 21.9989 556.319 24.101 552.495 25.5847ZM565.438 20.0597L546.785 -28.0107L561.534 -33.7337C563.992 -34.6875 566.068 -34.8438 567.763 -34.2024C569.45 -33.5792 570.895 -32.3382 572.098 -30.4796C573.313 -28.6462 574.446 -26.373 575.499 -23.66C576.516 -21.0379 576.992 -18.8133 576.926 -16.9859C576.878 -15.1656 576.051 -13.5982 574.445 -12.2837C576.077 -12.5606 577.426 -12.2148 578.493 -11.2462C579.572 -10.3029 580.478 -8.88435 581.213 -6.99067L588.271 11.1996L578.794 14.8772L571.492 -3.94128C570.948 -5.34333 570.321 -6.09519 569.611 -6.19684C568.912 -6.32377 567.925 -6.13995 566.651 -5.64536L575.161 16.2867L565.438 20.0597ZM563.473 -13.9969L565.795 -14.8978C567.124 -15.4136 567.227 -17.119 566.103 -20.0142C565.376 -21.8897 564.753 -23.0622 564.236 -23.5318C563.718 -24.0014 563.059 -24.0808 562.258 -23.7699L560.018 -22.9009L563.473 -13.9969ZM589.858 10.584L571.205 -37.4864L590.433 -44.9475L594.036 -35.6612L584.586 -31.9942L588.221 -22.6259L597.289 -26.1446L600.797 -17.104L591.729 -13.5854L596.001 -2.57841L606.079 -6.48916L609.714 2.87911L589.858 10.584ZM614.796 0.906996L599.726 -37.9317L594.017 -35.7167L590.435 -44.9484L611.466 -53.109L615.048 -43.8773L609.34 -41.6623L624.411 -2.82358L614.796 0.906996Z" fill="black"/>
</g>
<rect x="250.613" y="-110" width="1345.41" height="99" transform="rotate(8.48891 250.613 -110)" fill="#E9E9E9"/>
<path d="M341.399 -20.6184L347.549 -61.8222L341.493 -62.726L342.955 -72.5199L365.266 -69.1898L363.805 -59.396L357.749 -60.2999L351.599 -19.0961L341.399 -20.6184ZM370.222 -15.8427C366.146 -16.451 363.209 -18.1433 361.412 -20.9195C359.636 -23.7122 359.096 -27.4362 359.791 -32.0917L363.407 -56.3156C364.058 -60.6813 365.615 -63.8356 368.077 -65.7786C370.559 -67.7187 373.857 -68.3816 377.971 -67.7675C382.086 -67.1534 385.037 -65.5577 386.825 -62.9805C388.632 -60.4003 389.209 -56.9274 388.558 -52.5617L384.942 -28.3378C384.247 -23.6823 382.634 -20.2798 380.101 -18.1301C377.591 -15.9968 374.297 -15.2344 370.222 -15.8427ZM371.71 -25.2179C373.255 -24.9873 374.251 -26.369 374.698 -29.3632L378.413 -54.2535C378.788 -56.7648 378.222 -58.1328 376.715 -58.3577C375.015 -58.6114 373.974 -57.4537 373.59 -54.8845L369.879 -30.0232C369.643 -28.4391 369.666 -27.2706 369.949 -26.5175C370.234 -25.7837 370.821 -25.3505 371.71 -25.2179ZM384.607 -14.1695L392.219 -65.1671L405.693 -63.1561C408.513 -62.7352 410.65 -61.7744 412.105 -60.2737C413.579 -58.7701 414.5 -56.806 414.869 -54.3812C415.238 -51.9565 415.183 -49.1407 414.704 -45.9341C414.243 -42.8433 413.541 -40.1932 412.599 -37.9839C411.66 -35.7938 410.324 -34.1863 408.591 -33.1613C406.878 -32.1335 404.611 -31.83 401.791 -32.251L397.647 -32.8694L394.633 -12.6732L384.607 -14.1695ZM399.014 -42.0258L399.593 -41.9393C401.486 -41.6567 402.725 -42.015 403.308 -43.014C403.892 -44.013 404.338 -45.546 404.646 -47.6129C404.935 -49.5447 404.944 -51.0638 404.675 -52.1704C404.428 -53.2934 403.532 -53.9702 401.986 -54.2009L400.856 -54.3695L399.014 -42.0258ZM433.86 -6.34452C429.204 -7.03936 426.016 -8.70007 424.295 -11.3266C422.593 -13.9503 422.12 -17.7927 422.876 -22.8539L423.619 -27.8377L433.703 -26.3327L432.752 -19.958C432.576 -18.7797 432.611 -17.8265 432.858 -17.0985C433.127 -16.3869 433.706 -15.9648 434.594 -15.8322C435.522 -15.6938 436.199 -15.8691 436.628 -16.3581C437.076 -16.8442 437.392 -17.7054 437.576 -18.9417C437.81 -20.5064 437.85 -21.8334 437.697 -22.9226C437.546 -24.0312 437.155 -25.1164 436.524 -26.1783C435.914 -27.2566 435.029 -28.5342 433.867 -30.0109L429.937 -35.0406C427 -38.7769 425.841 -42.7217 426.461 -46.8749C427.109 -51.2213 428.608 -54.3843 430.958 -56.3639C433.326 -58.3406 436.423 -59.0435 440.248 -58.4726C444.922 -57.7749 448.049 -56.0345 449.629 -53.2513C451.227 -50.4653 451.647 -46.5321 450.889 -41.4517L440.515 -42.9999L441.039 -46.506C441.142 -47.2014 441.02 -47.7726 440.672 -48.2195C440.344 -48.6635 439.841 -48.9359 439.165 -49.0369C438.354 -49.1579 437.72 -49.0155 437.265 -48.6096C436.832 -48.22 436.562 -47.6679 436.455 -46.9532C436.348 -46.2384 436.426 -45.4369 436.688 -44.5486C436.951 -43.6603 437.571 -42.5902 438.549 -41.3383L443.588 -34.8101C444.599 -33.5138 445.504 -32.1644 446.301 -30.7617C447.102 -29.3784 447.678 -27.8114 448.029 -26.0607C448.383 -24.3293 448.382 -22.2757 448.028 -19.8996C447.312 -15.109 445.863 -11.4844 443.679 -9.02588C441.518 -6.58383 438.245 -5.69004 433.86 -6.34452ZM446.854 -4.87895L454.466 -55.8766L474.865 -52.8319L473.395 -42.9801L463.369 -44.4765L461.885 -34.5378L471.505 -33.1019L470.074 -23.5109L460.454 -24.9467L458.711 -13.2694L469.403 -11.6736L467.92 -1.73486L446.854 -4.87895ZM480.747 0.653608C477.058 0.102924 474.254 -1.49046 472.337 -4.12655C470.44 -6.75975 469.799 -10.1433 470.416 -14.2772L473.928 -37.8056C474.666 -42.7509 476.207 -46.3914 478.55 -48.7274C480.912 -51.0605 484.305 -51.8969 488.729 -51.2366C491.144 -50.8762 493.222 -50.1119 494.963 -48.9436C496.723 -47.7725 498.012 -46.2176 498.828 -44.279C499.648 -42.3596 499.857 -40.0574 499.456 -37.3723L498.141 -28.5636L488 -30.0773L489.124 -37.611C489.352 -39.1371 489.312 -40.1897 489.003 -40.769C488.698 -41.3675 488.139 -41.7273 487.328 -41.8484C486.381 -41.9897 485.692 -41.7371 485.26 -41.0907C484.83 -40.4636 484.531 -39.5802 484.361 -38.4405L480.55 -12.9127C480.34 -11.5026 480.394 -10.4775 480.714 -9.8374C481.052 -9.19445 481.608 -8.81532 482.38 -8.69999C483.25 -8.57025 483.911 -8.8368 484.366 -9.49964C484.839 -10.1596 485.161 -11.0594 485.332 -12.1992L486.702 -21.3845L496.96 -19.8536L495.52 -10.2046C494.851 -5.72298 493.235 -2.63668 490.672 -0.945696C488.112 0.725971 484.804 1.25907 480.747 0.653608ZM494.727 2.26621L502.339 -48.7314L517.986 -46.396C520.594 -46.0068 522.475 -45.1139 523.629 -43.7173C524.786 -42.34 525.426 -40.5461 525.551 -38.3355C525.697 -36.1414 525.556 -33.6053 525.126 -30.727C524.711 -27.9453 524.022 -25.7771 523.059 -24.2225C522.116 -22.665 520.621 -21.7132 518.575 -21.3669C520.129 -20.7992 521.13 -19.8303 521.577 -18.4602C522.046 -17.1066 522.131 -15.4253 521.831 -13.4163L518.951 5.8817L508.896 4.38101L511.876 -15.5834C512.098 -17.0708 511.926 -18.0345 511.36 -18.4745C510.816 -18.9309 509.868 -19.26 508.515 -19.4618L505.043 3.80582L494.727 2.26621ZM509.892 -28.2908L512.355 -27.9232C513.766 -27.7128 514.7 -29.1432 515.158 -32.2147C515.455 -34.2044 515.495 -35.5314 515.278 -36.1956C515.062 -36.8599 514.528 -37.2555 513.678 -37.3824L511.302 -37.737L509.892 -28.2908ZM520.634 6.13288L528.246 -44.8647L548.645 -41.8201L547.174 -31.9683L537.148 -33.4647L535.665 -23.5259L545.285 -22.0901L543.854 -12.4991L534.234 -13.9349L532.491 -2.2576L543.183 -0.661767L541.699 9.27697L520.634 6.13288ZM547.091 10.0817L553.241 -31.122L547.185 -32.0259L548.647 -41.8198L570.958 -38.4897L569.497 -28.6958L563.441 -29.5997L557.291 11.604L547.091 10.0817ZM648.931 25.2816L655.081 -15.9221L649.025 -16.826L650.487 -26.6198L672.798 -23.2898L671.336 -13.4959L665.281 -14.3998L659.131 26.804L648.931 25.2816ZM677.753 30.0574C673.677 29.449 670.741 27.7567 668.943 24.9805C667.168 22.1879 666.628 18.4638 667.323 13.8084L670.938 -10.4155C671.59 -14.7812 673.147 -17.9355 675.609 -19.8785C678.091 -21.8186 681.389 -22.4816 685.503 -21.8675C689.618 -21.2534 692.569 -19.6577 694.356 -17.0804C696.163 -14.5002 696.741 -11.0273 696.089 -6.66161L692.474 17.5623C691.779 22.2177 690.165 25.6203 687.633 27.77C685.122 29.9033 681.829 30.6657 677.753 30.0574ZM679.241 20.6821C680.787 20.9128 681.783 19.531 682.23 16.5369L685.945 -8.35345C686.32 -10.8647 685.754 -12.2328 684.247 -12.4576C682.547 -12.7114 681.505 -11.5536 681.122 -8.98443L677.411 15.8769C677.175 17.4609 677.198 18.6295 677.48 19.3826C677.766 20.1163 678.353 20.5495 679.241 20.6821ZM692.139 31.7305L699.75 -19.2671L713.224 -17.2561C716.045 -16.8351 718.182 -15.8743 719.637 -14.3736C721.11 -12.87 722.032 -10.9059 722.401 -8.48114C722.769 -6.05639 722.714 -3.24068 722.236 -0.03401C721.774 3.05675 721.073 5.70682 720.131 7.9162C719.192 10.1063 717.856 11.7138 716.123 12.7387C714.41 13.7666 712.143 14.0701 709.322 13.6491L705.179 13.0307L702.165 33.2269L692.139 31.7305ZM706.546 3.87429L707.125 3.96078C709.018 4.24333 710.256 3.8851 710.84 2.88608C711.424 1.88706 711.87 0.354072 712.178 -1.71288C712.466 -3.6446 712.476 -5.16375 712.207 -6.27031C711.96 -7.39331 711.063 -8.07013 709.518 -8.30079L708.388 -8.46945L706.546 3.87429ZM741.391 39.5555C736.736 38.8607 733.548 37.2 731.827 34.5734C730.125 31.9497 729.652 28.1073 730.407 23.0462L731.151 18.0623L741.235 19.5674L740.283 25.9421C740.107 27.1204 740.143 28.0736 740.39 28.8016C740.659 29.5132 741.238 29.9353 742.126 30.0679C743.053 30.2063 743.731 30.031 744.16 29.542C744.607 29.0559 744.924 28.1947 745.108 26.9584C745.342 25.3937 745.382 24.0667 745.228 22.9774C745.078 21.8689 744.687 20.7836 744.055 19.7218C743.446 18.6434 742.561 17.3659 741.399 15.8891L737.469 10.8595C734.532 7.12315 733.373 3.17839 733.993 -0.974824C734.641 -5.32121 736.14 -8.4842 738.489 -10.4638C740.858 -12.4405 743.955 -13.1434 747.779 -12.5725C752.454 -11.8748 755.581 -10.1344 757.16 -7.35127C758.759 -4.56526 759.179 -0.632031 758.421 4.44841L748.047 2.90015L748.57 -0.605931C748.674 -1.30135 748.552 -1.87251 748.204 -2.3194C747.875 -2.76341 747.373 -3.03587 746.697 -3.13678C745.886 -3.25787 745.252 -3.11544 744.797 -2.70949C744.363 -2.31998 744.093 -1.76785 743.987 -1.05311C743.88 -0.33837 743.958 0.463153 744.22 1.35146C744.483 2.23976 745.103 3.30985 746.081 4.56173L751.12 11.09C752.131 12.3862 753.035 13.7357 753.833 15.1384C754.634 16.5217 755.21 18.0887 755.561 19.8394C755.914 21.5707 755.914 23.6244 755.559 26.0004C754.844 30.7911 753.395 34.4157 751.211 36.8742C749.05 39.3162 745.776 40.21 741.391 39.5555ZM754.386 41.0211L761.998 -9.97649L782.397 -6.93187L780.926 2.91994L770.901 1.42358L769.417 11.3623L779.037 12.7981L777.606 22.3892L767.986 20.9533L766.243 32.6306L776.935 34.2265L775.452 44.1652L754.386 41.0211ZM788.279 46.5537C784.589 46.003 781.786 44.4096 779.869 41.7735C777.971 39.1403 777.331 35.7568 777.948 31.6229L781.46 8.09443C782.198 3.14921 783.738 -0.491379 786.082 -2.82733C788.444 -5.1604 791.837 -5.99681 796.261 -5.33656C798.675 -4.97617 800.753 -4.21184 802.494 -3.04358C804.255 -1.87243 805.543 -0.317537 806.36 1.62111C807.179 3.54044 807.389 5.84265 806.988 8.52775L805.673 17.3364L795.532 15.8228L796.656 8.28903C796.884 6.76297 796.843 5.71032 796.535 5.13109C796.229 4.53255 795.671 4.17273 794.86 4.05163C793.913 3.91036 793.224 4.16292 792.791 4.80933C792.362 5.43642 792.062 6.31983 791.892 7.45955L788.082 32.9873C787.872 34.3975 787.926 35.4226 788.245 36.0627C788.584 36.7056 789.139 37.0847 789.912 37.2001C790.781 37.3298 791.443 37.0633 791.898 36.4004C792.371 35.7405 792.693 34.8406 792.863 33.7009L794.234 24.5155L804.492 26.0465L803.052 35.6955C802.383 40.1771 800.767 43.2634 798.204 44.9544C795.644 46.626 792.336 47.1591 788.279 46.5537ZM802.259 48.1663L809.871 -2.83132L825.518 -0.495955C828.125 -0.106728 830.006 0.78619 831.161 2.1828C832.318 3.56009 832.958 5.354 833.082 7.56453C833.229 9.75863 833.087 12.2948 832.658 15.1731C832.243 17.9548 831.554 20.1229 830.591 21.6775C829.648 23.235 828.153 24.1869 826.107 24.5332C827.661 25.1009 828.662 26.0698 829.109 27.4398C829.578 28.7935 829.663 30.4748 829.363 32.4838L826.483 51.7818L816.428 50.2811L819.408 30.3167C819.63 28.8293 819.458 27.8656 818.892 27.4256C818.348 26.9692 817.399 26.6401 816.047 26.4382L812.574 49.7059L802.259 48.1663ZM817.424 17.6092L819.887 17.9768C821.297 18.1873 822.232 16.7568 822.69 13.6854C822.987 11.6957 823.027 10.3687 822.81 9.70443C822.593 9.04015 822.06 8.64458 821.21 8.51772L818.834 8.16309L817.424 17.6092ZM828.166 52.033L835.777 1.03535L856.176 4.07997L854.706 13.9318L844.68 12.4354L843.197 22.3742L852.817 23.81L851.385 33.401L841.765 31.9652L840.023 43.6425L850.715 45.2383L849.231 55.177L828.166 52.033ZM854.623 55.9818L860.773 14.778L854.717 13.8742L856.179 4.08031L878.49 7.41036L877.028 17.2042L870.972 16.3003L864.823 57.5041L854.623 55.9818ZM944.928 69.4601L951.078 28.2564L945.022 27.3525L946.484 17.5586L968.795 20.8887L967.334 30.6825L961.278 29.7787L955.128 70.9824L944.928 69.4601ZM973.75 74.2358C969.674 73.6275 966.738 71.9352 964.94 69.159C963.165 66.3664 962.625 62.6423 963.32 57.9869L966.935 33.763C967.587 29.3973 969.144 26.243 971.606 24.3C974.088 22.3599 977.386 21.6969 981.5 22.311C985.615 22.9251 988.566 24.5208 990.354 27.0981C992.16 29.6782 992.738 33.1512 992.086 37.5169L988.471 61.7407C987.776 66.3962 986.162 69.7988 983.63 71.9485C981.119 74.0817 977.826 74.8442 973.75 74.2358ZM975.239 64.8606C976.784 65.0913 977.78 63.7095 978.227 60.7153L981.942 35.825C982.317 33.3138 981.751 31.9457 980.244 31.7208C978.544 31.4671 977.502 32.6249 977.119 35.1941L973.408 60.0554C973.172 61.6394 973.195 62.808 973.477 63.561C973.763 64.2948 974.35 64.728 975.239 64.8606ZM988.136 75.909L995.748 24.9114L1009.22 26.9224C1012.04 27.3433 1014.18 28.3042 1015.63 29.8049C1017.11 31.3084 1018.03 33.2726 1018.4 35.6973C1018.77 38.1221 1018.71 40.9378 1018.23 44.1445C1017.77 47.2352 1017.07 49.8853 1016.13 52.0947C1015.19 54.2847 1013.85 55.8923 1012.12 56.9172C1010.41 57.9451 1008.14 58.2485 1005.32 57.8276L1001.18 57.2091L998.162 77.4054L988.136 75.909ZM1002.54 48.0528L1003.12 48.1393C1005.02 48.4218 1006.25 48.0636 1006.84 47.0646C1007.42 46.0655 1007.87 44.5325 1008.18 42.4656C1008.46 40.5339 1008.47 39.0147 1008.2 37.9082C1007.96 36.7852 1007.06 36.1083 1005.52 35.8777L1004.38 35.709L1002.54 48.0528ZM1037.39 83.734C1032.73 83.0392 1029.54 81.3785 1027.82 78.7519C1026.12 76.1282 1025.65 72.2858 1026.4 67.2247L1027.15 62.2408L1037.23 63.7458L1036.28 70.1205C1036.1 71.2989 1036.14 72.2521 1036.39 72.9801C1036.66 73.6916 1037.23 74.1137 1038.12 74.2464C1039.05 74.3847 1039.73 74.2095 1040.16 73.7205C1040.6 73.2344 1040.92 72.3732 1041.11 71.1369C1041.34 69.5722 1041.38 68.2452 1041.23 67.1559C1041.07 66.0473 1040.68 64.9621 1040.05 63.9002C1039.44 62.8219 1038.56 61.5444 1037.4 60.0676L1033.47 55.0379C1030.53 51.3016 1029.37 47.3569 1029.99 43.2036C1030.64 38.8573 1032.14 35.6943 1034.49 33.7147C1036.86 31.738 1039.95 31.0351 1043.78 31.6059C1048.45 32.3037 1051.58 34.0441 1053.16 36.8272C1054.76 39.6132 1055.18 43.5464 1054.42 48.6269L1044.04 47.0786L1044.57 43.5725C1044.67 42.8771 1044.55 42.306 1044.2 41.8591C1043.87 41.4151 1043.37 41.1426 1042.69 41.0417C1041.88 40.9206 1041.25 41.063 1040.79 41.469C1040.36 41.8585 1040.09 42.4106 1039.98 43.1254C1039.88 43.8401 1039.95 44.6416 1040.22 45.5299C1040.48 46.4182 1041.1 47.4883 1042.08 48.7402L1047.12 55.2684C1048.13 56.5647 1049.03 57.9142 1049.83 59.3168C1050.63 60.7002 1051.21 62.2672 1051.56 64.0179C1051.91 65.7492 1051.91 67.8029 1051.56 70.1789C1050.84 74.9696 1049.39 78.5942 1047.21 81.0527C1045.05 83.4947 1041.77 84.3885 1037.39 83.734ZM1050.38 85.1996L1057.99 34.202L1078.39 37.2466L1076.92 47.0984L1066.9 45.602L1065.41 55.5408L1075.03 56.9766L1073.6 66.5676L1063.98 65.1318L1062.24 76.8091L1072.93 78.4049L1071.45 88.3437L1050.38 85.1996ZM1084.28 90.7322C1080.59 90.1815 1077.78 88.5881 1075.87 85.952C1073.97 83.3188 1073.33 79.9352 1073.95 75.8013L1077.46 52.2729C1078.19 47.3277 1079.74 43.6871 1082.08 41.3511C1084.44 39.0181 1087.83 38.1817 1092.26 38.8419C1094.67 39.2023 1096.75 39.9666 1098.49 41.1349C1100.25 42.306 1101.54 43.8609 1102.36 45.7996C1103.18 47.7189 1103.39 50.0211 1102.99 52.7062L1101.67 61.5149L1091.53 60.0012L1092.65 52.4675C1092.88 50.9414 1092.84 49.8888 1092.53 49.3096C1092.23 48.711 1091.67 48.3512 1090.86 48.2301C1089.91 48.0888 1089.22 48.3414 1088.79 48.9878C1088.36 49.6149 1088.06 50.4983 1087.89 51.638L1084.08 77.1658C1083.87 78.576 1083.92 79.6011 1084.24 80.2411C1084.58 80.8841 1085.14 81.2632 1085.91 81.3786C1086.78 81.5083 1087.44 81.2417 1087.89 80.5789C1088.37 79.9189 1088.69 79.0191 1088.86 77.8794L1090.23 68.694L1100.49 70.225L1099.05 79.874C1098.38 84.3556 1096.76 87.4419 1094.2 89.1328C1091.64 90.8045 1088.33 91.3376 1084.28 90.7322ZM1098.26 92.3448L1105.87 41.3472L1121.51 43.6825C1124.12 44.0717 1126 44.9647 1127.16 46.3613C1128.31 47.7386 1128.96 49.5325 1129.08 51.743C1129.23 53.9371 1129.08 56.4733 1128.65 59.3516C1128.24 62.1332 1127.55 64.3014 1126.59 65.856C1125.64 67.4135 1124.15 68.3654 1122.1 68.7116C1123.66 69.2793 1124.66 70.2482 1125.11 71.6183C1125.58 72.972 1125.66 74.6533 1125.36 76.6623L1122.48 95.9602L1112.43 94.4596L1115.4 74.4952C1115.63 73.0077 1115.45 72.044 1114.89 71.604C1114.34 71.1476 1113.4 70.8185 1112.04 70.6167L1108.57 93.8844L1098.26 92.3448ZM1113.42 61.7877L1115.88 62.1553C1117.29 62.3658 1118.23 60.9353 1118.69 57.8638C1118.98 55.8742 1119.02 54.5472 1118.81 53.8829C1118.59 53.2186 1118.06 52.823 1117.21 52.6962L1114.83 52.3416L1113.42 61.7877ZM1124.16 96.2114L1131.77 45.2138L1152.17 48.2584L1150.7 58.1102L1140.68 56.6139L1139.19 66.5526L1148.81 67.9884L1147.38 77.5795L1137.76 76.1436L1136.02 87.8209L1146.71 89.4168L1145.23 99.3555L1124.16 96.2114ZM1150.62 100.16L1156.77 58.9565L1150.71 58.0526L1152.18 48.2588L1174.49 51.5888L1173.03 61.3827L1166.97 60.4788L1160.82 101.683L1150.62 100.16ZM1252.46 115.36L1258.61 74.1564L1252.55 73.2526L1254.02 63.4587L1276.33 66.7888L1274.87 76.5826L1268.81 75.6787L1262.66 116.882L1252.46 115.36ZM1281.28 120.136C1277.21 119.528 1274.27 117.835 1272.47 115.059C1270.7 112.266 1270.16 108.542 1270.85 103.887L1274.47 79.6631C1275.12 75.2974 1276.68 72.143 1279.14 70.2C1281.62 68.2599 1284.92 67.597 1289.03 68.2111C1293.15 68.8252 1296.1 70.4209 1297.89 72.9981C1299.69 75.5783 1300.27 79.0512 1299.62 83.4169L1296 107.641C1295.31 112.296 1293.69 115.699 1291.16 117.849C1288.65 119.982 1285.36 120.744 1281.28 120.136ZM1282.77 110.761C1284.32 110.991 1285.31 109.61 1285.76 106.615L1289.47 81.7251C1289.85 79.2138 1289.28 77.8458 1287.78 77.6209C1286.08 77.3672 1285.03 78.5249 1284.65 81.0941L1280.94 105.955C1280.7 107.539 1280.73 108.708 1281.01 109.461C1281.29 110.195 1281.88 110.628 1282.77 110.761ZM1295.67 121.809L1303.28 70.8115L1316.75 72.8225C1319.57 73.2434 1321.71 74.2042 1323.17 75.7049C1324.64 77.2085 1325.56 79.1727 1325.93 81.5974C1326.3 84.0222 1326.24 86.8379 1325.76 90.0445C1325.3 93.1353 1324.6 95.7854 1323.66 97.9948C1322.72 100.185 1321.38 101.792 1319.65 102.817C1317.94 103.845 1315.67 104.149 1312.85 103.728L1308.71 103.109L1305.69 123.305L1295.67 121.809ZM1310.07 93.9528L1310.65 94.0393C1312.55 94.3219 1313.79 93.9636 1314.37 92.9646C1314.95 91.9656 1315.4 90.4326 1315.71 88.3657C1316 86.4339 1316 84.9148 1315.74 83.8082C1315.49 82.6852 1314.59 82.0084 1313.05 81.7778L1311.92 81.6091L1310.07 93.9528ZM1344.92 129.634C1340.26 128.939 1337.08 127.279 1335.36 124.652C1333.65 122.028 1333.18 118.186 1333.94 113.125L1334.68 108.141L1344.76 109.646L1343.81 116.021C1343.64 117.199 1343.67 118.152 1343.92 118.88C1344.19 119.592 1344.77 120.014 1345.65 120.146C1346.58 120.285 1347.26 120.11 1347.69 119.621C1348.14 119.134 1348.45 118.273 1348.64 117.037C1348.87 115.472 1348.91 114.145 1348.76 113.056C1348.61 111.947 1348.22 110.862 1347.58 109.8C1346.98 108.722 1346.09 107.444 1344.93 105.968L1341 100.938C1338.06 97.2017 1336.9 93.2569 1337.52 89.1037C1338.17 84.7573 1339.67 81.5943 1342.02 79.6148C1344.39 77.638 1347.48 76.9351 1351.31 77.506C1355.98 78.2037 1359.11 79.9441 1360.69 82.7273C1362.29 85.5133 1362.71 89.4465 1361.95 94.527L1351.58 92.9787L1352.1 89.4726C1352.2 88.7772 1352.08 88.206 1351.73 87.7591C1351.4 87.3151 1350.9 87.0427 1350.23 86.9418C1349.41 86.8207 1348.78 86.9631 1348.33 87.369C1347.89 87.7586 1347.62 88.3107 1347.52 89.0254C1347.41 89.7402 1347.49 90.5417 1347.75 91.43C1348.01 92.3183 1348.63 93.3884 1349.61 94.6403L1354.65 101.168C1355.66 102.465 1356.56 103.814 1357.36 105.217C1358.16 106.6 1358.74 108.167 1359.09 109.918C1359.44 111.649 1359.44 113.703 1359.09 116.079C1358.37 120.87 1356.92 124.494 1354.74 126.953C1352.58 129.395 1349.31 130.289 1344.92 129.634ZM1357.91 131.1L1365.53 80.1021L1385.93 83.1467L1384.46 92.9985L1374.43 91.5021L1372.95 101.441L1382.57 102.877L1381.13 112.468L1371.51 111.032L1369.77 122.709L1380.46 124.305L1378.98 134.244L1357.91 131.1ZM1391.81 136.632C1388.12 136.082 1385.31 134.488 1383.4 131.852C1381.5 129.219 1380.86 125.835 1381.48 121.701L1384.99 98.173C1385.73 93.2277 1387.27 89.5872 1389.61 87.2512C1391.97 84.9181 1395.37 84.0817 1399.79 84.742C1402.2 85.1024 1404.28 85.8667 1406.02 87.035C1407.78 88.2061 1409.07 89.761 1409.89 91.6996C1410.71 93.619 1410.92 95.9212 1410.52 98.6063L1409.2 107.415L1399.06 105.901L1400.18 98.3676C1400.41 96.8415 1400.37 95.7889 1400.06 95.2096C1399.76 94.6111 1399.2 94.2513 1398.39 94.1302C1397.44 93.9889 1396.75 94.2415 1396.32 94.8879C1395.89 95.515 1395.59 96.3984 1395.42 97.5381L1391.61 123.066C1391.4 124.476 1391.45 125.501 1391.77 126.141C1392.11 126.784 1392.67 127.163 1393.44 127.279C1394.31 127.408 1394.97 127.142 1395.43 126.479C1395.9 125.819 1396.22 124.919 1396.39 123.779L1397.76 114.594L1408.02 116.125L1406.58 125.774C1405.91 130.256 1404.3 133.342 1401.73 135.033C1399.17 136.705 1395.86 137.238 1391.81 136.632ZM1405.79 138.245L1413.4 87.2472L1429.05 89.5826C1431.65 89.9718 1433.54 90.8647 1434.69 92.2613C1435.85 93.6386 1436.49 95.4325 1436.61 97.6431C1436.76 99.8372 1436.62 102.373 1436.19 105.252C1435.77 108.033 1435.08 110.201 1434.12 111.756C1433.18 113.314 1431.68 114.265 1429.64 114.612C1431.19 115.179 1432.19 116.148 1432.64 117.518C1433.11 118.872 1433.19 120.553 1432.89 122.562L1430.01 141.86L1419.96 140.36L1422.94 120.395C1423.16 118.908 1422.99 117.944 1422.42 117.504C1421.88 117.048 1420.93 116.719 1419.58 116.517L1416.1 139.784L1405.79 138.245ZM1420.95 107.688L1423.42 108.055C1424.83 108.266 1425.76 106.835 1426.22 103.764C1426.52 101.774 1426.56 100.447 1426.34 99.783C1426.12 99.1187 1425.59 98.7231 1424.74 98.5962L1422.36 98.2416L1420.95 107.688ZM1431.69 142.111L1439.31 91.1139L1459.71 94.1585L1458.23 104.01L1448.21 102.514L1446.73 112.453L1456.35 113.889L1454.91 123.48L1445.29 122.044L1443.55 133.721L1454.24 135.317L1452.76 145.256L1431.69 142.111ZM1458.15 146.06L1464.3 104.857L1458.25 103.953L1459.71 94.1589L1482.02 97.4889L1480.56 107.283L1474.5 106.379L1468.35 147.583L1458.15 146.06Z" fill="black"/>
<defs>
<filter id="filter0_d_0_1" x="161.4" y="530.4" width="1198.72" height="907.422" filterUnits="userSpaceOnUse" color-interpolation-filters="sRGB">
<feFlood flood-opacity="0" result="BackgroundImageFix"/>
<feColorMatrix in="SourceAlpha" type="matrix" values="0 0 0 0 0 0 0 0 0 0 0 0 0 0 0 0 0 0 127 0" result="hardAlpha"/>
<feOffset dy="-24"/>
<feGaussianBlur stdDeviation="11.3"/>
<feComposite in2="hardAlpha" operator="out"/>
<feColorMatrix type="matrix" values="0 0 0 0 0 0 0 0 0 0 0 0 0 0 0 0 0 0 0.25 0"/>
<feBlend mode="normal" in2="BackgroundImageFix" result="effect1_dropShadow_0_1"/>
<feBlend mode="normal" in="SourceGraphic" in2="effect1_dropShadow_0_1" result="shape"/>
</filter>
<filter id="filter1_f_0_1" x="-606.5" y="-155.5" width="1381.11" height="670.001" filterUnits="userSpaceOnUse" color-interpolation-filters="sRGB">
<feFlood flood-opacity="0" result="BackgroundImageFix"/>
<feBlend mode="normal" in="SourceGraphic" in2="BackgroundImageFix" result="shape"/>
<feGaussianBlur stdDeviation="22.75" result="effect1_foregroundBlur_0_1"/>
</filter>
</defs>
</svg>
