<svg width="65" height="118" viewBox="0 0 65 118" fill="none" xmlns="http://www.w3.org/2000/svg">
<path d="M55.7078 65.0117L63 51.7294L60.1427 51.684H25.2594L41.8492 3.52364L41.8645 3.47074C42.1242 2.49204 41.6468 1.53979 40.6994 1.15436C39.7521 0.7727 38.736 1.11657 38.2279 1.98947L4.31486 59.8046L2 64.3429L10.0753 64.4714V64.4789L25.6452 64.7434L25.3129 65.8808L11.798 115.012C11.565 115.761 11.905 116.516 12.6231 116.849C12.8447 116.951 13.0739 117 13.2955 117C13.7997 117 14.2733 116.751 14.5751 116.297L33.1322 82.8022L45.8639 82.9306L52.3005 71.2051L39.0492 71.0389L41.9065 64.8606L55.704 65.0042L55.7078 65.0117Z" stroke="#BBB0FF" stroke-width="2" stroke-miterlimit="10"/>
</svg>
