<svg width="304" height="123" viewBox="0 0 304 123" fill="none" xmlns="http://www.w3.org/2000/svg">
<path d="M78.6053 82.1043C76.5845 82.1043 75.1398 80.86 74.6554 78.9394C74.3548 77.5782 74.2713 75.2734 74.2713 68.0333L74.2713 64.7682C74.3882 59.8245 74.455 57.1607 74.455 56.7682C74.455 50.4968 73.7953 47.7077 71.7661 44.9018C69.0605 41.3361 64.1502 39.3068 58.0792 39.3068C51.4237 39.3068 46.4133 41.0521 40.7264 45.3778C41.5114 47.9832 41.6868 49.144 41.6868 50.6889C41.6868 50.9728 41.6868 51.4488 41.5866 51.9331L42.7473 51.9331C45.0688 47.1231 49.1022 44.4175 53.9289 44.4175C59.6158 44.4175 63.5657 48.2671 63.5657 53.8621C63.5657 57.3527 61.9206 58.7974 57.1941 59.9331C49.7536 61.7369 45.5198 62.8642 44.4926 63.3235C39.8663 65.5281 37.3611 69.478 37.3611 74.6888C37.3611 82.0291 42.572 86.7389 50.5636 86.7389C55.9498 86.7389 59.9999 84.6179 64.05 79.6993C65.4947 84.1335 67.8997 85.9707 72.3256 85.9707C75.2317 85.9707 77.6366 85.2859 80.3423 83.6492L80.3423 81.9289C79.4571 82.0291 79.0813 82.1126 78.597 82.1126L78.6053 82.1043ZM63.858 64.5678C63.858 70.8392 63.7578 72.9686 63.3736 74.8893C62.6137 78.5385 59.1482 81.2442 55.0981 81.2442C51.048 81.2442 48.5427 78.2546 48.5427 73.3444C48.5427 68.8099 50.263 66.0041 54.0292 64.4676C56.05 63.7076 59.3152 62.5469 63.9498 61.3026C63.8496 62.5469 63.8496 63.0229 63.8496 64.5678L63.858 64.5678Z" fill="white"/>
<path d="M78.6053 82.1043C76.5845 82.1043 75.1398 80.86 74.6554 78.9394C74.3548 77.5782 74.2713 75.2734 74.2713 68.0333L74.2713 64.7682C74.3882 59.8245 74.455 57.1607 74.455 56.7682C74.455 50.4968 73.7953 47.7077 71.7661 44.9018C69.0605 41.3361 64.1502 39.3068 58.0792 39.3068C51.4237 39.3068 46.4133 41.0521 40.7264 45.3778C41.5114 47.9832 41.6868 49.144 41.6868 50.6889C41.6868 50.9728 41.6868 51.4488 41.5866 51.9331L42.7473 51.9331C45.0688 47.1231 49.1022 44.4175 53.9289 44.4175C59.6158 44.4175 63.5657 48.2671 63.5657 53.8621C63.5657 57.3527 61.9206 58.7974 57.1941 59.9331C49.7536 61.7369 45.5198 62.8642 44.4926 63.3235C39.8663 65.5281 37.3611 69.478 37.3611 74.6888C37.3611 82.0291 42.572 86.7389 50.5636 86.7389C55.9498 86.7389 59.9999 84.6179 64.05 79.6993C65.4947 84.1335 67.8997 85.9707 72.3256 85.9707C75.2317 85.9707 77.6366 85.2859 80.3423 83.6492L80.3423 81.9289C79.4571 82.0291 79.0813 82.1126 78.597 82.1126L78.6053 82.1043ZM63.858 64.5678C63.858 70.8392 63.7578 72.9686 63.3736 74.8893C62.6137 78.5385 59.1482 81.2442 55.0981 81.2442C51.048 81.2442 48.5427 78.2546 48.5427 73.3444C48.5427 68.8099 50.263 66.0041 54.0292 64.4676C56.05 63.7076 59.3152 62.5469 63.9498 61.3026C63.8496 62.5469 63.8496 63.0229 63.8496 64.5678L63.858 64.5678Z" fill="white"/>
<path d="M154.297 62.5386C160.852 62.5386 165.094 62.6388 169.328 62.8225C169.428 61.478 169.528 60.2171 169.528 59.7327C169.528 46.6221 162.397 39.1064 149.871 39.1064C136.284 39.1064 127.992 48.167 127.992 62.9227C127.992 77.6784 136.768 86.5386 150.739 86.5386C156.526 86.5386 160.76 85.2943 166.171 81.8288C166.455 80.0835 166.656 79.407 167.416 77.478L167.716 76.7181L166.731 76.1336C162.781 79.6993 158.739 81.4279 153.929 81.4279C145.153 81.4279 139.666 74.7891 139.666 64.0918C139.666 63.9916 139.666 63.3068 139.766 62.7473C144.977 62.6471 149.787 62.5469 154.313 62.5469L154.297 62.5386ZM149.762 42.6722C153.712 42.6722 156.418 45.0772 157.654 49.6116C158.238 51.6325 158.439 53.6618 158.639 58.3883C156.317 58.5887 155.633 58.5887 151.783 58.5887L149.278 58.5887C142.722 58.5887 142.246 58.5887 139.841 58.4885C140.226 48.5678 143.992 42.6722 149.762 42.6722Z" fill="white"/>
<path d="M154.297 62.5386C160.852 62.5386 165.094 62.6388 169.328 62.8225C169.428 61.478 169.528 60.2171 169.528 59.7327C169.528 46.6221 162.397 39.1064 149.871 39.1064C136.284 39.1064 127.992 48.167 127.992 62.9227C127.992 77.6784 136.768 86.5386 150.739 86.5386C156.526 86.5386 160.76 85.2943 166.171 81.8288C166.455 80.0835 166.656 79.407 167.416 77.478L167.716 76.7181L166.731 76.1336C162.781 79.6993 158.739 81.4279 153.929 81.4279C145.153 81.4279 139.666 74.7891 139.666 64.0918C139.666 63.9916 139.666 63.3068 139.766 62.7473C144.977 62.6471 149.787 62.5469 154.313 62.5469L154.297 62.5386ZM149.762 42.6722C153.712 42.6722 156.418 45.0772 157.654 49.6116C158.238 51.6325 158.439 53.6618 158.639 58.3883C156.317 58.5887 155.633 58.5887 151.783 58.5887L149.278 58.5887C142.722 58.5887 142.246 58.5887 139.841 58.4885C140.226 48.5678 143.992 42.6722 149.762 42.6722Z" fill="white"/>
<path d="M180.501 45.0021L181.662 45.0021C181.662 51.4572 181.562 58.8726 181.278 68.4342C181.177 70.4551 181.177 72.4843 181.177 73.4446C181.177 81.9206 185.428 86.4551 193.119 86.4551C196.1 86.4551 198.906 85.8705 202.856 84.5344L203.34 81.3444C201.119 82.0292 199.875 82.2045 198.23 82.2045C195.624 82.2045 193.804 81.144 192.919 79.1148C192.058 77.1941 191.858 75.4488 191.858 69.7703L191.858 61.2943C191.958 48.3841 191.958 48.1837 192.058 46.4384L192.058 44.9937L193.403 44.9937L197.253 45.0939L200.818 45.0939L201.879 45.1941C201.679 43.7494 201.679 43.4488 201.679 42.9728C201.679 42.4969 201.679 42.2129 201.879 40.5678L192.058 40.8518C192.259 36.8017 192.342 33.5365 192.342 33.5365C192.543 31.3152 192.727 29.2025 192.818 26.9812L192.919 25.5365L192.342 24.952C188.192 27.2568 184.351 28.9019 181.261 29.6868C181.361 31.7077 181.361 32.1921 181.545 35.5574C181.745 37.3779 181.745 38.3465 181.745 39.6075L181.745 40.952L174.23 40.668C174.43 41.6284 174.43 42.0125 174.43 42.7891C174.43 43.6493 174.43 44.2338 174.23 45.2943C175.39 45.1607 177.478 45.0689 180.501 45.0104L180.501 44.9937L180.501 45.0021Z" fill="white"/>
<path d="M180.501 45.0021L181.662 45.0021C181.662 51.4572 181.562 58.8726 181.278 68.4342C181.177 70.4551 181.177 72.4843 181.177 73.4446C181.177 81.9206 185.428 86.4551 193.119 86.4551C196.1 86.4551 198.906 85.8705 202.856 84.5344L203.34 81.3444C201.119 82.0292 199.875 82.2045 198.23 82.2045C195.624 82.2045 193.804 81.144 192.919 79.1148C192.058 77.1941 191.858 75.4488 191.858 69.7703L191.858 61.2943C191.958 48.3841 191.958 48.1837 192.058 46.4384L192.058 44.9937L193.403 44.9937L197.253 45.0939L200.818 45.0939L201.879 45.1941C201.679 43.7494 201.679 43.4488 201.679 42.9728C201.679 42.4969 201.679 42.2129 201.879 40.5678L192.058 40.8518C192.259 36.8017 192.342 33.5365 192.342 33.5365C192.543 31.3152 192.727 29.2025 192.818 26.9812L192.919 25.5365L192.342 24.952C188.192 27.2568 184.351 28.9019 181.261 29.6868C181.361 31.7077 181.361 32.1921 181.545 35.5574C181.745 37.3779 181.745 38.3465 181.745 39.6075L181.745 40.952L174.23 40.668C174.43 41.6284 174.43 42.0125 174.43 42.7891C174.43 43.6493 174.43 44.2338 174.23 45.2943C175.39 45.1607 177.478 45.0689 180.501 45.0104L180.501 44.9937L180.501 45.0021Z" fill="white"/>
<path d="M230.697 86.5386C236.484 86.5386 240.718 85.2776 245.628 82.2045C245.829 80.8601 246.112 79.4989 246.973 77.0939L245.912 76.5093C242.722 79.7995 238.781 81.4196 234.346 81.4196C224.81 81.4196 218.839 74.0041 218.839 62.1377C218.839 50.2714 224.234 42.9561 232.526 42.9561C237.737 42.9561 242.062 46.4217 243.223 51.4321L244.668 51.4321C245.052 49.311 246.213 45.9373 247.557 43.0563C243.131 40.3507 238.296 39.1064 232.225 39.1064C216.818 39.1064 206.981 48.4509 206.981 63.0981C206.981 77.7452 216.242 86.5302 230.689 86.5302L230.705 86.5302L230.697 86.5386Z" fill="white"/>
<path d="M230.697 86.5386C236.484 86.5386 240.718 85.2776 245.628 82.2045C245.829 80.8601 246.112 79.4989 246.973 77.0939L245.912 76.5093C242.722 79.7995 238.781 81.4196 234.346 81.4196C224.81 81.4196 218.839 74.0041 218.839 62.1377C218.839 50.2714 224.234 42.9561 232.526 42.9561C237.737 42.9561 242.062 46.4217 243.223 51.4321L244.668 51.4321C245.052 49.311 246.213 45.9373 247.557 43.0563C243.131 40.3507 238.296 39.1064 232.225 39.1064C216.818 39.1064 206.981 48.4509 206.981 63.0981C206.981 77.7452 216.242 86.5302 230.689 86.5302L230.705 86.5302L230.697 86.5386Z" fill="white"/>
<path d="M258.555 85.1942C260.2 85.1942 261.537 85.2944 264.426 85.5783C264.042 79.8831 263.741 70.0627 263.741 63.6076C263.741 57.1525 264.025 54.4468 265.002 52.0418C266.647 48.0919 269.628 45.9708 273.478 45.9708C277.328 45.9708 280.033 47.7913 281.47 50.8811C282.43 53.0022 282.814 55.8915 282.814 61.2861C282.814 69.5867 282.53 77.4865 281.854 85.5783C285.119 85.2944 286.48 85.1942 287.925 85.1942C289.47 85.1942 290.706 85.2944 293.795 85.5783C293.511 81.8121 293.311 74.2965 293.311 68.8017C293.311 66.5804 293.311 64.1671 293.411 61.8623C293.612 58.8727 293.695 55.9917 293.695 54.8226C293.695 49.9124 292.434 46.4468 289.545 43.641C286.764 40.8518 282.789 39.3153 278.463 39.3153C272.393 39.3153 267.783 42.0042 263.733 47.7913C263.791 39.2318 264.134 23.2986 264.393 20.2924C262.171 20.6765 261.203 20.7767 258.697 20.7767C256.192 20.7767 254.848 20.6765 252.426 20.2924C253.01 31.9583 253.186 33.8456 253.186 46.856C253.186 64.0168 252.902 76.2673 252.426 85.6034C255.516 85.3194 256.852 85.2192 258.497 85.2192L258.539 85.2025L258.555 85.1942Z" fill="white"/>
<path d="M258.555 85.1942C260.2 85.1942 261.537 85.2944 264.426 85.5783C264.042 79.8831 263.741 70.0627 263.741 63.6076C263.741 57.1525 264.025 54.4468 265.002 52.0418C266.647 48.0919 269.628 45.9708 273.478 45.9708C277.328 45.9708 280.033 47.7913 281.47 50.8811C282.43 53.0022 282.814 55.8915 282.814 61.2861C282.814 69.5867 282.53 77.4865 281.854 85.5783C285.119 85.2944 286.48 85.1942 287.925 85.1942C289.47 85.1942 290.706 85.2944 293.795 85.5783C293.511 81.8121 293.311 74.2965 293.311 68.8017C293.311 66.5804 293.311 64.1671 293.411 61.8623C293.612 58.8727 293.695 55.9917 293.695 54.8226C293.695 49.9124 292.434 46.4468 289.545 43.641C286.764 40.8518 282.789 39.3153 278.463 39.3153C272.393 39.3153 267.783 42.0042 263.733 47.7913C263.791 39.2318 264.134 23.2986 264.393 20.2924C262.171 20.6765 261.203 20.7767 258.697 20.7767C256.192 20.7767 254.848 20.6765 252.426 20.2924C253.01 31.9583 253.186 33.8456 253.186 46.856C253.186 64.0168 252.902 76.2673 252.426 85.6034C255.516 85.3194 256.852 85.2192 258.497 85.2192L258.539 85.2025L258.555 85.1942Z" fill="white"/>
<path d="M304 100.785C300.409 100.668 185.553 100.543 103.015 100.468C103.198 110.873 103.416 120.05 103.674 122.522C100.793 122.238 99.3237 122.138 97.2193 122.138C94.998 122.138 93.4532 122.238 90.2632 122.522C90.522 119.958 90.7475 110.998 90.9229 100.451C50.9062 100.434 21.0524 100.409 20.0252 100.409C16.8018 100.409 7.98352 100.593 2.18811 100.793L0.000209217 100.793C1.62027 96.3256 9.56179 75.0146 14.5054 56.7098C17.0691 47.2651 19.3739 38.6472 20.7184 33.5198C24.7685 18.1461 26.5304 10.1879 28.4094 -1.20464e-05C31.4991 1.11899 33.1359 1.6618 35.4824 2.26305C37.7037 2.86431 38.948 3.08141 41.353 3.42379C38.1046 12.7265 35.3405 23.0313 31.115 39.048C28.9688 47.2484 19.5325 81.645 16.6265 93.5365C17.0273 93.5532 17.8457 93.5532 18.1881 93.5532C20.234 93.5532 50.6891 93.5114 91.0064 93.4112C91.2068 80.8016 91.307 67.4906 91.307 60.6764C91.307 48.2505 90.9647 28.5595 90.3049 21.3278C95.2152 21.7119 100.986 21.9123 108.702 21.9123C114.873 21.9123 122.004 21.7119 126.338 21.3278C126.054 22.8726 125.954 23.7328 125.954 24.9937C125.954 26.1545 126.054 26.9144 126.338 28.5595C121.228 27.9749 111.691 27.5992 103.315 27.4989C102.931 35.4989 102.798 52.192 102.798 58.3716C103.942 58.4551 105.102 58.4551 105.487 58.4551C110.973 58.4551 115.048 58.0709 120.718 57.5949C120.334 59.1398 120.234 59.9165 120.234 61.2609C120.234 62.5052 120.334 63.2818 120.718 64.6263C114.948 64.1419 109.253 63.8664 102.706 63.8664L102.706 66.6555C102.706 72.0668 102.789 82.7557 102.906 93.3778C185.745 93.1774 299.958 92.7933 303.992 92.3173C303.608 94.1377 303.507 96.5427 303.507 97.7119C303.507 98.7724 303.608 99.4572 303.992 100.802L304 100.785Z" fill="white"/>
<path d="M304 100.785C300.409 100.668 185.553 100.543 103.015 100.468C103.198 110.873 103.416 120.05 103.674 122.522C100.793 122.238 99.3237 122.138 97.2193 122.138C94.998 122.138 93.4532 122.238 90.2632 122.522C90.522 119.958 90.7475 110.998 90.9229 100.451C50.9062 100.434 21.0524 100.409 20.0252 100.409C16.8018 100.409 7.98352 100.593 2.18811 100.793L0.000209217 100.793C1.62027 96.3256 9.56179 75.0146 14.5054 56.7098C17.0691 47.2651 19.3739 38.6472 20.7184 33.5198C24.7685 18.1461 26.5304 10.1879 28.4094 -1.20464e-05C31.4991 1.11899 33.1359 1.6618 35.4824 2.26305C37.7037 2.86431 38.948 3.08141 41.353 3.42379C38.1046 12.7265 35.3405 23.0313 31.115 39.048C28.9688 47.2484 19.5325 81.645 16.6265 93.5365C17.0273 93.5532 17.8457 93.5532 18.1881 93.5532C20.234 93.5532 50.6891 93.5114 91.0064 93.4112C91.2068 80.8016 91.307 67.4906 91.307 60.6764C91.307 48.2505 90.9647 28.5595 90.3049 21.3278C95.2152 21.7119 100.986 21.9123 108.702 21.9123C114.873 21.9123 122.004 21.7119 126.338 21.3278C126.054 22.8726 125.954 23.7328 125.954 24.9937C125.954 26.1545 126.054 26.9144 126.338 28.5595C121.228 27.9749 111.691 27.5992 103.315 27.4989C102.931 35.4989 102.798 52.192 102.798 58.3716C103.942 58.4551 105.102 58.4551 105.487 58.4551C110.973 58.4551 115.048 58.0709 120.718 57.5949C120.334 59.1398 120.234 59.9165 120.234 61.2609C120.234 62.5052 120.334 63.2818 120.718 64.6263C114.948 64.1419 109.253 63.8664 102.706 63.8664L102.706 66.6555C102.706 72.0668 102.789 82.7557 102.906 93.3778C185.745 93.1774 299.958 92.7933 303.992 92.3173C303.608 94.1377 303.507 96.5427 303.507 97.7119C303.507 98.7724 303.608 99.4572 303.992 100.802L304 100.785Z" fill="white"/>
</svg>
