<svg width="80" height="32" viewBox="0 0 80 32" fill="none" xmlns="http://www.w3.org/2000/svg">
<g clip-path="url(#clip0_76_834)">
<path d="M20.5262 21.445C19.9976 21.445 19.6208 21.1204 19.4952 20.6178C19.4166 20.2618 19.3957 19.6597 19.3957 17.7696V16.9162C19.4271 15.6248 19.4428 14.9285 19.4428 14.8272C19.4428 13.1885 19.2701 12.4607 18.7415 11.7278C18.035 10.7958 16.7527 10.267 15.1669 10.267C13.4294 10.267 12.121 10.7225 10.6346 11.8534C10.8387 12.534 10.8858 12.8377 10.8858 13.2408C10.8858 13.3141 10.8858 13.4398 10.8597 13.5654H11.1632C11.7703 12.3089 12.8223 11.6021 14.0836 11.6021C15.5699 11.6021 16.601 12.6073 16.601 14.0681C16.601 14.9791 16.1718 15.356 14.9367 15.6545C12.9933 16.1257 11.8872 16.4206 11.6186 16.5393C10.4096 17.1152 9.75537 18.1466 9.75537 19.5078C9.75537 21.4241 11.1161 22.6545 13.2043 22.6545C14.6122 22.6545 15.6694 22.0995 16.7266 20.8168C17.1034 21.9739 17.7314 22.4556 18.888 22.4556C19.6469 22.4556 20.275 22.2774 20.9815 21.8482V21.3979C20.7512 21.4241 20.6518 21.445 20.5262 21.445ZM16.6742 16.8639C16.6742 18.5026 16.6481 19.0576 16.5486 19.5602C16.3498 20.5131 15.4443 21.2199 14.3871 21.2199C13.3299 21.2199 12.6757 20.4398 12.6757 19.1571C12.6757 17.9738 13.1258 17.2408 14.1098 16.8377C14.6384 16.6387 15.4914 16.3351 16.7004 16.0105C16.6742 16.3351 16.6742 16.4607 16.6742 16.8639Z" fill="white"/>
<path d="M20.5262 21.445C19.9976 21.445 19.6208 21.1204 19.4952 20.6178C19.4166 20.2618 19.3957 19.6597 19.3957 17.7696V16.9162C19.4271 15.6248 19.4428 14.9285 19.4428 14.8272C19.4428 13.1885 19.2701 12.4607 18.7415 11.7278C18.035 10.7958 16.7527 10.267 15.1669 10.267C13.4294 10.267 12.121 10.7225 10.6346 11.8534C10.8387 12.534 10.8858 12.8377 10.8858 13.2408C10.8858 13.3141 10.8858 13.4398 10.8597 13.5654H11.1632C11.7703 12.3089 12.8223 11.6021 14.0836 11.6021C15.5699 11.6021 16.601 12.6073 16.601 14.0681C16.601 14.9791 16.1718 15.356 14.9367 15.6545C12.9933 16.1257 11.8872 16.4206 11.6186 16.5393C10.4096 17.1152 9.75537 18.1466 9.75537 19.5078C9.75537 21.4241 11.1161 22.6545 13.2043 22.6545C14.6122 22.6545 15.6694 22.0995 16.7266 20.8168C17.1034 21.9739 17.7314 22.4556 18.888 22.4556C19.6469 22.4556 20.275 22.2774 20.9815 21.8482V21.3979C20.7512 21.4241 20.6518 21.445 20.5262 21.445ZM16.6742 16.8639C16.6742 18.5026 16.6481 19.0576 16.5486 19.5602C16.3498 20.5131 15.4443 21.2199 14.3871 21.2199C13.3299 21.2199 12.6757 20.4398 12.6757 19.1571C12.6757 17.9738 13.1258 17.2408 14.1098 16.8377C14.6384 16.6387 15.4914 16.3351 16.7004 16.0105C16.6742 16.3351 16.6742 16.4607 16.6742 16.8639Z" fill="white"/>
<path d="M40.2937 16.3351C42.005 16.3351 43.1146 16.3613 44.2188 16.4084C44.245 16.0576 44.2712 15.7277 44.2712 15.6021C44.2712 12.178 42.408 10.2147 39.1371 10.2147C35.5886 10.2147 33.4219 12.5811 33.4219 16.4346C33.4219 20.288 35.7142 22.6022 39.3622 22.6022C40.8746 22.6022 41.9788 22.2774 43.392 21.3717C43.4653 20.9162 43.5177 20.7382 43.7166 20.2356L43.7951 20.0366L43.5386 19.8848C42.5075 20.8168 41.4504 21.267 40.1942 21.267C37.9019 21.267 36.4679 19.534 36.4679 16.7382C36.4679 16.712 36.4679 16.534 36.4941 16.3874C37.8547 16.3613 39.111 16.3351 40.2937 16.3351ZM39.111 11.1466C40.1419 11.1466 40.8485 11.7749 41.173 12.9581C41.3248 13.4869 41.3771 14.0157 41.4294 15.2513C40.8223 15.3037 40.6444 15.3037 39.6396 15.3037H38.9853C37.274 15.3037 37.1484 15.3037 36.5203 15.2775C36.6197 12.6859 37.6037 11.1466 39.111 11.1466Z" fill="white"/>
<path d="M40.2937 16.3351C42.005 16.3351 43.1146 16.3613 44.2188 16.4084C44.245 16.0576 44.2712 15.7277 44.2712 15.6021C44.2712 12.178 42.408 10.2147 39.1371 10.2147C35.5886 10.2147 33.4219 12.5811 33.4219 16.4346C33.4219 20.288 35.7142 22.6022 39.3622 22.6022C40.8746 22.6022 41.9788 22.2774 43.392 21.3717C43.4653 20.9162 43.5177 20.7382 43.7166 20.2356L43.7951 20.0366L43.5386 19.8848C42.5075 20.8168 41.4504 21.267 40.1942 21.267C37.9019 21.267 36.4679 19.534 36.4679 16.7382C36.4679 16.712 36.4679 16.534 36.4941 16.3874C37.8547 16.3613 39.111 16.3351 40.2937 16.3351ZM39.111 11.1466C40.1419 11.1466 40.8485 11.7749 41.173 12.9581C41.3248 13.4869 41.3771 14.0157 41.4294 15.2513C40.8223 15.3037 40.6444 15.3037 39.6396 15.3037H38.9853C37.274 15.3037 37.1484 15.3037 36.5203 15.2775C36.6197 12.6859 37.6037 11.1466 39.111 11.1466Z" fill="white"/>
<path d="M47.139 11.7539H47.4426C47.4426 13.4398 47.4164 15.3769 47.3431 17.8743C47.317 18.4031 47.317 18.9319 47.317 19.1832C47.317 21.3979 48.4266 22.5812 50.4363 22.5812C51.216 22.5812 51.9488 22.4294 52.9797 22.0785L53.1053 21.2461C52.5245 21.4241 52.2 21.4712 51.7708 21.4712C51.0904 21.4712 50.6143 21.1937 50.3838 20.6649C50.1589 20.1623 50.1066 19.7068 50.1066 18.2251V16.0105C50.1328 12.6387 50.1328 12.5864 50.1589 12.1309V11.7539H50.5094L51.5144 11.7801H52.4458L52.7232 11.8063C52.6709 11.4293 52.6709 11.3508 52.6709 11.2251C52.6709 11.0995 52.6709 11.0262 52.7232 10.5968L50.1589 10.6701C50.2112 9.61256 50.2322 8.75915 50.2322 8.75915C50.2845 8.17801 50.3315 7.62826 50.3576 7.04711L50.3838 6.67014L50.2322 6.51831C49.1488 7.12041 48.144 7.54973 47.338 7.75392C47.3641 8.28272 47.3641 8.40836 47.4112 9.28795C47.4636 9.76439 47.4636 10.0157 47.4636 10.3455V10.6963L45.501 10.623C45.5533 10.8743 45.5533 10.9738 45.5533 11.178C45.5533 11.4031 45.5533 11.555 45.501 11.8325C45.8045 11.7976 46.3505 11.7731 47.139 11.7592V11.7539Z" fill="white"/>
<path d="M47.139 11.7539H47.4426C47.4426 13.4398 47.4164 15.3769 47.3431 17.8743C47.317 18.4031 47.317 18.9319 47.317 19.1832C47.317 21.3979 48.4266 22.5812 50.4363 22.5812C51.216 22.5812 51.9488 22.4294 52.9797 22.0785L53.1053 21.2461C52.5245 21.4241 52.2 21.4712 51.7708 21.4712C51.0904 21.4712 50.6143 21.1937 50.3838 20.6649C50.1589 20.1623 50.1066 19.7068 50.1066 18.2251V16.0105C50.1328 12.6387 50.1328 12.5864 50.1589 12.1309V11.7539H50.5094L51.5144 11.7801H52.4458L52.7232 11.8063C52.6709 11.4293 52.6709 11.3508 52.6709 11.2251C52.6709 11.0995 52.6709 11.0262 52.7232 10.5968L50.1589 10.6701C50.2112 9.61256 50.2322 8.75915 50.2322 8.75915C50.2845 8.17801 50.3315 7.62826 50.3576 7.04711L50.3838 6.67014L50.2322 6.51831C49.1488 7.12041 48.144 7.54973 47.338 7.75392C47.3641 8.28272 47.3641 8.40836 47.4112 9.28795C47.4636 9.76439 47.4636 10.0157 47.4636 10.3455V10.6963L45.501 10.623C45.5533 10.8743 45.5533 10.9738 45.5533 11.178C45.5533 11.4031 45.5533 11.555 45.501 11.8325C45.8045 11.7976 46.3505 11.7731 47.139 11.7592V11.7539Z" fill="white"/>
<path d="M60.2493 22.6022C61.7617 22.6022 62.8661 22.2722 64.1483 21.4712C64.2006 21.1204 64.2739 20.7644 64.499 20.1361L64.2216 19.9843C63.3894 20.8429 62.3585 21.267 61.2017 21.267C58.7105 21.267 57.1509 19.3298 57.1509 16.2304C57.1509 13.1309 58.5589 11.2199 60.7256 11.2199C62.0862 11.2199 63.2166 12.1256 63.5202 13.4346H63.8971C63.9965 12.8796 64.3001 12 64.6508 11.2461C63.494 10.5393 62.2328 10.2147 60.6471 10.2147C56.6222 10.2147 54.0527 12.6544 54.0527 16.4817C54.0527 20.3089 56.4707 22.6022 60.2441 22.6022H60.2493Z" fill="white"/>
<path d="M60.2493 22.6022C61.7617 22.6022 62.8661 22.2722 64.1483 21.4712C64.2006 21.1204 64.2739 20.7644 64.499 20.1361L64.2216 19.9843C63.3894 20.8429 62.3585 21.267 61.2017 21.267C58.7105 21.267 57.1509 19.3298 57.1509 16.2304C57.1509 13.1309 58.5589 11.2199 60.7256 11.2199C62.0862 11.2199 63.2166 12.1256 63.5202 13.4346H63.8971C63.9965 12.8796 64.3001 12 64.6508 11.2461C63.494 10.5393 62.2328 10.2147 60.6471 10.2147C56.6222 10.2147 54.0527 12.6544 54.0527 16.4817C54.0527 20.3089 56.4707 22.6022 60.2441 22.6022H60.2493Z" fill="white"/>
<path d="M67.5245 22.2512C67.9535 22.2512 68.3042 22.2774 69.058 22.3507C68.9585 20.8639 68.88 18.2984 68.88 16.6125C68.88 14.9267 68.9533 14.2199 69.2097 13.5916C69.6389 12.5602 70.4186 12.0052 71.4236 12.0052C72.4283 12.0052 73.1349 12.4817 73.5118 13.2879C73.763 13.8429 73.8623 14.5968 73.8623 16.0052C73.8623 18.1728 73.7892 20.2356 73.6112 22.3507C74.4642 22.2774 74.8201 22.2512 75.197 22.2512C75.6 22.2512 75.9243 22.2774 76.7304 22.3507C76.6571 21.3665 76.6048 19.4031 76.6048 17.9686C76.6048 17.3874 76.6048 16.7591 76.6309 16.1571C76.6833 15.377 76.7042 14.623 76.7042 14.3194C76.7042 13.0366 76.3745 12.1309 75.6208 11.3979C74.8934 10.6701 73.8571 10.267 72.7267 10.267C71.141 10.267 69.9371 10.9686 68.88 12.4817C68.8956 10.2461 68.9847 6.08374 69.0528 5.2984C68.4718 5.39788 68.2206 5.42407 67.5663 5.42407C66.9122 5.42407 66.5615 5.39788 65.9282 5.2984C66.08 8.34554 66.1271 8.83769 66.1271 12.2356C66.1271 16.7173 66.0538 19.9162 65.9282 22.3561C66.7343 22.2828 67.0848 22.2566 67.514 22.2566L67.5245 22.2512Z" fill="white"/>
<path d="M67.5245 22.2512C67.9535 22.2512 68.3042 22.2774 69.058 22.3507C68.9585 20.8639 68.88 18.2984 68.88 16.6125C68.88 14.9267 68.9533 14.2199 69.2097 13.5916C69.6389 12.5602 70.4186 12.0052 71.4236 12.0052C72.4283 12.0052 73.1349 12.4817 73.5118 13.2879C73.763 13.8429 73.8623 14.5968 73.8623 16.0052C73.8623 18.1728 73.7892 20.2356 73.6112 22.3507C74.4642 22.2774 74.8201 22.2512 75.197 22.2512C75.6 22.2512 75.9243 22.2774 76.7304 22.3507C76.6571 21.3665 76.6048 19.4031 76.6048 17.9686C76.6048 17.3874 76.6048 16.7591 76.6309 16.1571C76.6833 15.377 76.7042 14.623 76.7042 14.3194C76.7042 13.0366 76.3745 12.1309 75.6208 11.3979C74.8934 10.6701 73.8571 10.267 72.7267 10.267C71.141 10.267 69.9371 10.9686 68.88 12.4817C68.8956 10.2461 68.9847 6.08374 69.0528 5.2984C68.4718 5.39788 68.2206 5.42407 67.5663 5.42407C66.9122 5.42407 66.5615 5.39788 65.9282 5.2984C66.08 8.34554 66.1271 8.83769 66.1271 12.2356C66.1271 16.7173 66.0538 19.9162 65.9282 22.3561C66.7343 22.2828 67.0848 22.2566 67.514 22.2566L67.5245 22.2512Z" fill="white"/>
<path d="M79.3942 26.3245C78.4573 26.2932 48.4582 26.2618 26.9008 26.2409C26.9479 28.9581 27.0054 31.3561 27.0735 32C26.32 31.9267 25.9379 31.9005 25.3883 31.9005C24.8074 31.9005 24.4043 31.9267 23.5723 32C23.6402 31.3299 23.6979 28.9896 23.7449 26.2357C13.2934 26.2303 5.49531 26.2251 5.22839 26.2251C4.38577 26.2251 2.08298 26.2722 0.570465 26.3245H0C0.423924 25.157 2.49643 19.5916 3.78915 14.8115C4.45905 12.3456 5.06091 10.0942 5.41157 8.75392C6.46876 4.73823 6.92932 2.65968 7.42128 0C8.22726 0.293194 8.65641 0.434556 9.26876 0.591624C9.84969 0.748692 10.1742 0.806283 10.8022 0.895289C9.95436 3.32461 9.23211 6.0157 8.12783 10.199C7.56783 12.3403 5.10279 21.3246 4.34391 24.4294C4.44858 24.4346 4.66316 24.4346 4.75213 24.4346C5.28597 24.4346 13.2411 24.424 23.771 24.3978C23.8236 21.1047 23.8497 17.6283 23.8497 15.8482C23.8497 12.6021 23.7606 7.46074 23.5879 5.57068C24.8703 5.67016 26.3775 5.72251 28.3924 5.72251C30.0043 5.72251 31.8675 5.67016 32.9981 5.57068C32.9248 5.97382 32.8986 6.19896 32.8986 6.5288C32.8986 6.83245 32.9248 7.03142 32.9981 7.46074C31.6634 7.30891 29.1723 7.20943 26.9846 7.18324C26.8852 9.27226 26.8484 13.6335 26.8484 15.2461C27.1468 15.267 27.4504 15.267 27.5498 15.267C28.9838 15.267 30.0463 15.1675 31.5274 15.0419C31.4279 15.445 31.4017 15.6492 31.4017 16C31.4017 16.3246 31.4279 16.5288 31.5274 16.8796C30.0201 16.7539 28.5336 16.6806 26.8223 16.6806V17.4084C26.8223 18.822 26.8432 21.6126 26.8746 24.3875C48.5105 24.3351 78.3421 24.2357 79.3942 24.1101C79.2947 24.5864 79.2685 25.2147 79.2685 25.5183C79.2685 25.7959 79.2947 25.9738 79.3942 26.3245Z" fill="white"/>
<path d="M79.3942 26.3245C78.4573 26.2932 48.4582 26.2618 26.9008 26.2409C26.9479 28.9581 27.0054 31.3561 27.0735 32C26.32 31.9267 25.9379 31.9005 25.3883 31.9005C24.8074 31.9005 24.4043 31.9267 23.5723 32C23.6402 31.3299 23.6979 28.9896 23.7449 26.2357C13.2934 26.2303 5.49531 26.2251 5.22839 26.2251C4.38577 26.2251 2.08298 26.2722 0.570465 26.3245H0C0.423924 25.157 2.49643 19.5916 3.78915 14.8115C4.45905 12.3456 5.06091 10.0942 5.41157 8.75392C6.46876 4.73823 6.92932 2.65968 7.42128 0C8.22726 0.293194 8.65641 0.434556 9.26876 0.591624C9.84969 0.748692 10.1742 0.806283 10.8022 0.895289C9.95436 3.32461 9.23211 6.0157 8.12783 10.199C7.56783 12.3403 5.10279 21.3246 4.34391 24.4294C4.44858 24.4346 4.66316 24.4346 4.75213 24.4346C5.28597 24.4346 13.2411 24.424 23.771 24.3978C23.8236 21.1047 23.8497 17.6283 23.8497 15.8482C23.8497 12.6021 23.7606 7.46074 23.5879 5.57068C24.8703 5.67016 26.3775 5.72251 28.3924 5.72251C30.0043 5.72251 31.8675 5.67016 32.9981 5.57068C32.9248 5.97382 32.8986 6.19896 32.8986 6.5288C32.8986 6.83245 32.9248 7.03142 32.9981 7.46074C31.6634 7.30891 29.1723 7.20943 26.9846 7.18324C26.8852 9.27226 26.8484 13.6335 26.8484 15.2461C27.1468 15.267 27.4504 15.267 27.5498 15.267C28.9838 15.267 30.0463 15.1675 31.5274 15.0419C31.4279 15.445 31.4017 15.6492 31.4017 16C31.4017 16.3246 31.4279 16.5288 31.5274 16.8796C30.0201 16.7539 28.5336 16.6806 26.8223 16.6806V17.4084C26.8223 18.822 26.8432 21.6126 26.8746 24.3875C48.5105 24.3351 78.3421 24.2357 79.3942 24.1101C79.2947 24.5864 79.2685 25.2147 79.2685 25.5183C79.2685 25.7959 79.2947 25.9738 79.3942 26.3245Z" fill="white"/>
</g>
<defs>
<clipPath id="clip0_76_834">
<rect width="79.5676" height="32" fill="white"/>
</clipPath>
</defs>
</svg>
