<svg width="117" height="112" viewBox="0 0 117 112" fill="none" xmlns="http://www.w3.org/2000/svg">
<path d="M42.0374 2.17152C47.6726 1.30722 51.9596 4.48783 57.0762 4.90269C63.472 5.42127 68.9344 1.30722 75.019 2.10238C80.7926 2.86296 83.8694 10.8491 87.9489 14.2025C93.3767 18.6623 103.403 17.9017 105.65 25.7496C106.929 30.2439 105.788 35.3951 107.136 40.1315C108.796 45.9396 116.056 50.7105 114.984 57.5212C114.154 62.707 108.346 67.1667 107.067 72.1451C105.097 79.6818 108.865 87.5642 100.637 92.1277C96.5919 94.3748 91.7173 94.7206 87.9835 97.7975C84.2497 100.874 80.8617 108.791 75.6413 109.759C69.9024 110.831 65.5463 107.512 60.2914 107.097C53.8956 106.579 48.4332 110.693 42.3485 109.898C36.7825 109.172 33.6019 101.497 29.7644 98.1432C25.7195 94.6168 20.8794 94.5131 16.5233 91.9894C8.01861 87.0802 12.8587 78.2643 9.81634 70.8659C8.0186 66.4753 3.35141 62.4649 2.48711 57.7632C1.1388 50.7105 8.60634 45.905 10.2658 39.7512C11.3375 35.81 10.7844 32.1799 11.1993 28.3425C12.3402 17.3832 22.4166 19.4575 28.8815 14.2025C32.8573 10.9874 35.3996 3.3643 41.0002 2.5L42.0374 2.17152Z" stroke="white" stroke-width="3" stroke-miterlimit="10"/>
<circle cx="58.5" cy="56.5" r="40" fill="black" stroke="white" stroke-width="3"/>
<path d="M37.2003 43.8984L40.3995 42.1494H42.1661V54.5684H39.6788V45.1025L37.2003 46.5V43.8984ZM49.215 54.7881C47.7823 54.7881 46.6134 54.1904 45.7081 52.9951C44.7941 51.7998 44.337 50.2529 44.337 48.3545C44.337 46.4648 44.7941 44.918 45.7081 43.7227C46.6222 42.5273 47.7911 41.9297 49.215 41.9297C50.6564 41.9297 51.8341 42.5273 52.7394 43.7227C53.6446 44.918 54.0929 46.4648 54.0929 48.3545C54.0929 50.2529 53.6446 51.7998 52.7394 52.9951C51.8341 54.1904 50.6564 54.7881 49.215 54.7881ZM49.215 52.3887C49.9005 52.3887 50.463 52.0107 50.8937 51.2637C51.3243 50.5166 51.5353 49.541 51.5353 48.3545C51.5353 47.168 51.3243 46.2012 50.8937 45.4541C50.463 44.707 49.9005 44.3291 49.215 44.3291C48.5382 44.3291 47.9845 44.707 47.5538 45.4541C47.1144 46.2012 46.8946 47.168 46.8946 48.3545C46.8946 49.541 47.1144 50.5166 47.5538 51.2637C47.9845 52.0107 48.5382 52.3887 49.215 52.3887ZM60.6232 54.7881C59.1905 54.7881 58.0216 54.1904 57.1163 52.9951C56.2023 51.7998 55.7452 50.2529 55.7452 48.3545C55.7452 46.4648 56.2023 44.918 57.1163 43.7227C58.0304 42.5273 59.1993 41.9297 60.6232 41.9297C62.0646 41.9297 63.2423 42.5273 64.1476 43.7227C65.0528 44.918 65.5011 46.4648 65.5011 48.3545C65.5011 50.2529 65.0528 51.7998 64.1476 52.9951C63.2423 54.1904 62.0646 54.7881 60.6232 54.7881ZM60.6232 52.3887C61.3087 52.3887 61.8712 52.0107 62.3019 51.2637C62.7325 50.5166 62.9435 49.541 62.9435 48.3545C62.9435 47.168 62.7325 46.2012 62.3019 45.4541C61.8712 44.707 61.3087 44.3291 60.6232 44.3291C59.9464 44.3291 59.3927 44.707 58.962 45.4541C58.5226 46.2012 58.3028 47.168 58.3028 48.3545C58.3028 49.541 58.5226 50.5166 58.962 51.2637C59.3927 52.0107 59.9464 52.3887 60.6232 52.3887ZM71.9523 47.0977C71.3634 47.6865 70.6339 47.9766 69.7638 47.9766C68.8849 47.9766 68.1554 47.6865 67.5665 47.1064C66.9777 46.5264 66.6788 45.8057 66.6788 44.9355C66.6788 44.083 66.9777 43.3711 67.5665 42.791C68.1554 42.2197 68.8849 41.9297 69.7638 41.9297C70.6339 41.9297 71.3634 42.2197 71.9523 42.791C72.5411 43.3711 72.8312 44.083 72.8312 44.9355C72.8312 45.7969 72.5411 46.5176 71.9523 47.0977ZM70.4581 54.5684H67.9532L76.9532 42.1494H79.4581L70.4581 54.5684ZM68.9464 45.7529C69.1661 45.9727 69.4298 46.0869 69.755 46.0869C70.0802 46.0869 70.3439 45.9727 70.5636 45.7529C70.7833 45.5332 70.8888 45.2607 70.8888 44.9355C70.8888 44.6279 70.7833 44.3643 70.5636 44.1445C70.3439 43.9248 70.0802 43.8193 69.755 43.8193C69.4298 43.8193 69.1661 43.9248 68.9464 44.1445C68.7267 44.3643 68.6212 44.6279 68.6212 44.9355C68.6212 45.2607 68.7267 45.5332 68.9464 45.7529ZM79.8536 53.9092C79.2648 54.498 78.5353 54.7881 77.6652 54.7881C76.7862 54.7881 76.0568 54.498 75.4679 53.9092C74.879 53.3291 74.5802 52.6084 74.5802 51.7383C74.5802 50.8857 74.879 50.1738 75.4679 49.5938C76.0568 49.0225 76.7862 48.7324 77.6652 48.7324C78.5353 48.7324 79.2648 49.0225 79.8536 49.5938C80.4425 50.1738 80.7325 50.8857 80.7325 51.7383C80.7325 52.5996 80.4425 53.3203 79.8536 53.9092ZM76.8478 52.5645C77.0675 52.7842 77.3312 52.8984 77.6564 52.8984C77.9816 52.8984 78.2452 52.793 78.465 52.5732C78.6847 52.3535 78.7902 52.0811 78.7902 51.7383C78.7902 51.4307 78.6847 51.167 78.465 50.9473C78.2452 50.7275 77.9816 50.6221 77.6564 50.6221C77.3312 50.6221 77.0675 50.7275 76.8478 50.9473C76.628 51.167 76.5226 51.4307 76.5226 51.7383C76.5226 52.0723 76.628 52.3447 76.8478 52.5645Z" fill="white"/>
<path d="M40.6587 69.2539H39.4765L38.9756 67.9312H36.1499L35.6445 69.2539H34.4931L36.9409 63.0444H38.2109L40.6587 69.2539ZM37.5605 64.2134L36.5278 66.9424H38.5976L37.5605 64.2134ZM43.4844 69.3638C42.7593 69.3638 42.1528 69.1265 41.665 68.6475C41.1772 68.1685 40.9355 67.5752 40.9355 66.8589V63.0444H41.999V66.8413C41.999 67.2588 42.1396 67.6104 42.4253 67.896C42.7109 68.1816 43.0625 68.3267 43.4844 68.3267C43.9106 68.3267 44.2622 68.186 44.5434 67.9048C44.8247 67.6235 44.9653 67.2676 44.9653 66.8413V63.0444H46.0376V66.8589C46.0376 67.5752 45.7959 68.1685 45.3125 68.6475C44.8247 69.1265 44.2182 69.3638 43.4844 69.3638ZM46.833 63.0444H51.2627V64.0508H49.5884V69.2539H48.5161V64.0508H46.833V63.0444ZM56.2944 65.6284V63.0444H57.3535V69.2539H56.2944V66.6348H53.249V69.2539H52.1811V63.0444H53.249V65.6284H56.2944ZM59.7705 66.6348V68.2476H62.249V69.2539H58.7026V63.0444H62.2007V64.0508H59.7705V65.6284H61.9062V66.6348H59.7705ZM67.4653 67.4346V63.0444H68.5376V69.2539H67.4477L64.3408 64.8638V69.2539H63.2729V63.0444H64.3584L67.4653 67.4346ZM69.456 63.0444H73.8857V64.0508H72.2114V69.2539H71.1391V64.0508H69.456V63.0444ZM75.8721 69.2539H74.8042V63.0444H75.8721V69.2539ZM80.1523 69.3638C79.2251 69.3638 78.4473 69.0562 77.8232 68.4409C77.1992 67.8257 76.8872 67.061 76.8872 66.147C76.8872 65.2373 77.1992 64.4727 77.8232 63.8574C78.4473 63.2422 79.2251 62.9346 80.1523 62.9346C80.9873 62.9346 81.7036 63.1895 82.3056 63.6992C82.9077 64.209 83.2681 64.8594 83.3867 65.646H82.2705C82.1606 65.1538 81.9145 64.7495 81.5278 64.4375C81.1411 64.1255 80.6841 63.9717 80.1523 63.9717C79.5415 63.9717 79.0273 64.1782 78.6142 64.5957C78.2012 65.0132 77.9946 65.5273 77.9946 66.147C77.9946 66.7666 78.2012 67.2808 78.6142 67.6982C79.0273 68.1157 79.5415 68.3267 80.1523 68.3267C80.6797 68.3267 81.1367 68.1685 81.5278 67.8564C81.9145 67.5444 82.1606 67.1445 82.2705 66.6523H83.3867C83.2681 67.439 82.9077 68.085 82.3056 68.5947C81.7036 69.1089 80.9873 69.3638 80.1523 69.3638Z" fill="white"/>
</svg>
