<svg width="62" height="104" viewBox="0 0 62 104" fill="none" xmlns="http://www.w3.org/2000/svg">
<path d="M53.0664 57.1825L60 45.7322L57.2832 45.6931H24.1155L39.8894 4.17556L39.9039 4.12995C40.1509 3.28624 39.6969 2.46534 38.7962 2.13307C37.8954 1.80405 36.9293 2.10049 36.4462 2.85299L4.20101 52.6936L2 56.6059L9.67812 56.7167V56.7232L24.4823 56.9512L24.1663 57.9318L11.3162 100.287C11.0946 100.932 11.4179 101.583 12.1007 101.87C12.3114 101.958 12.5293 102 12.7399 102C13.2194 102 13.6697 101.785 13.9567 101.394L31.6011 72.5191L43.7067 72.6299L49.8267 62.5217L37.2271 62.3783L39.9439 57.0522L53.0628 57.176L53.0664 57.1825Z" stroke="white" stroke-width="3" stroke-miterlimit="10" stroke-linejoin="round"/>
</svg>
